<svg width="25" height="26" viewBox="0 0 25 26" fill="none" xmlns="http://www.w3.org/2000/svg">
<g clip-path="url(#clip0)">
<path d="M12.5 12.9587C16.4453 12.9587 19.6429 10.2122 19.6429 6.82337C19.6429 3.43456 16.4453 0.688049 12.5 0.688049C8.55469 0.688049 5.35714 3.43456 5.35714 6.82337C5.35714 10.2122 8.55469 12.9587 12.5 12.9587ZM17.5 14.4925H16.5681C15.3292 14.9814 13.9509 15.2594 12.5 15.2594C11.0491 15.2594 9.67634 14.9814 8.43192 14.4925H7.5C3.35937 14.4925 0 17.378 0 20.9346V22.9286C0 24.1988 1.19978 25.2293 2.67857 25.2293H22.3214C23.8002 25.2293 25 24.1988 25 22.9286V20.9346C25 17.378 21.6406 14.4925 17.5 14.4925Z" fill="#BB3842"/>
</g>
<defs>
<clipPath id="clip0">
<rect width="25" height="24.5413" fill="white" transform="translate(0 0.688049)"/>
</clipPath>
</defs>
</svg>
