<svg width="25" height="26" viewBox="0 0 25 26" fill="none" xmlns="http://www.w3.org/2000/svg">
<g clip-path="url(#clip0)">
<path d="M24.7768 12.1419H16.7411V4.17988C16.7411 3.20288 15.9414 2.41055 14.9554 2.41055H13.1696C12.1836 2.41055 11.3839 3.20288 11.3839 4.17988V12.1419H3.34821C2.36217 12.1419 1.5625 12.9342 1.5625 13.9112V15.6805C1.5625 16.6575 2.36217 17.4499 3.34821 17.4499H11.3839V25.4119C11.3839 26.3889 12.1836 27.1812 13.1696 27.1812H14.9554C15.9414 27.1812 16.7411 26.3889 16.7411 25.4119V17.4499H24.7768C25.7628 17.4499 26.5625 16.6575 26.5625 15.6805V13.9112C26.5625 12.9342 25.7628 12.1419 24.7768 12.1419Z" fill="#C63C44"/>
</g>
<defs>
<clipPath id="clip0">
<rect width="25" height="24.7706" fill="white" transform="translate(0 0.862396)"/>
</clipPath>
</defs>
</svg>
