<svg width="25" height="26" viewBox="0 0 25 26" fill="none" xmlns="http://www.w3.org/2000/svg">
<g clip-path="url(#clip0)">
<path d="M7.5 16.9633C9.91797 16.9633 11.875 14.1932 11.875 10.7707C11.875 7.34811 9.91797 4.578 7.5 4.578C5.08203 4.578 3.125 7.34811 3.125 10.7707C3.125 14.1932 5.08203 16.9633 7.5 16.9633ZM10.5 18.7327H10.1758C9.36328 19.2856 8.46094 19.6173 7.5 19.6173C6.53906 19.6173 5.64062 19.2856 4.82422 18.7327H4.5C2.01562 18.7327 0 21.5857 0 25.1022V26.6946C0 28.1599 0.839844 29.3486 1.875 29.3486H13.125C14.1602 29.3486 15 28.1599 15 26.6946V25.1022C15 21.5857 12.9844 18.7327 10.5 18.7327ZM18.75 16.9633C20.8203 16.9633 22.5 14.5858 22.5 11.6553C22.5 8.72487 20.8203 6.34733 18.75 6.34733C16.6797 6.34733 15 8.72487 15 11.6553C15 14.5858 16.6797 16.9633 18.75 16.9633ZM20.625 18.7327H20.4766C19.9336 18.9981 19.3594 19.175 18.75 19.175C18.1406 19.175 17.5664 18.9981 17.0234 18.7327H16.875C16.0781 18.7327 15.3438 19.0589 14.6992 19.5841C15.6523 21.0383 16.25 22.968 16.25 25.1022V27.2254C16.25 27.3471 16.2305 27.4632 16.2266 27.5793H23.125C24.1602 27.5793 25 26.3905 25 24.9253C25 21.5028 23.043 18.7327 20.625 18.7327Z" fill="#C63C44"/>
</g>
<defs>
<clipPath id="clip0">
<rect width="25" height="24.7706" fill="white" transform="translate(0 0.862396)"/>
</clipPath>
</defs>
</svg>
