<svg width="44" height="38" viewBox="0 0 44 38" fill="none" xmlns="http://www.w3.org/2000/svg">
<path d="M42.7918 20.5669C44.4027 19.014 44.4027 16.4963 42.7918 14.9434L29.0418 1.6885C27.4309 0.135612 24.8192 0.135529 23.2081 1.6885L1.20817 22.8963C-0.402724 24.4492 -0.402724 26.9669 1.20817 28.5198L9.45816 36.4728C10.2318 37.2185 11.281 37.6374 12.375 37.6374H42.9688C43.5383 37.6374 44 37.1923 44 36.6433V33.3296C44 32.7806 43.5383 32.3355 42.9688 32.3355H30.5837L42.7918 20.5669ZM16.7848 15.3787L28.5903 26.7591L22.8055 32.3355H12.9446L6.06965 25.7081L16.7848 15.3787Z" fill="#3B7FE7" fill-opacity="0.74"/>
</svg>
