<svg width="45" height="41" viewBox="0 0 45 41" fill="none" xmlns="http://www.w3.org/2000/svg">
<path d="M43.052 5.65736C41.1909 1.83791 35.8298 -1.28709 29.5936 0.532358C26.6137 1.39311 24.0138 3.239 22.2186 5.76847C20.4235 3.239 17.8236 1.39311 14.8436 0.532358C8.59365 -1.25931 3.24642 1.83791 1.38531 5.65736C-1.2258 11.0046 -0.142464 17.0185 4.60754 23.5324C8.32976 28.6296 13.6492 33.7963 21.3714 39.7963C21.6155 39.9866 21.9161 40.09 22.2256 40.09C22.5351 40.09 22.8357 39.9866 23.0798 39.7963C30.7881 33.8101 36.1214 28.6851 39.8436 23.5324C44.5798 17.0185 45.6631 11.0046 43.052 5.65736Z" fill="#C10F0F"/>
</svg>
