<svg width="33" height="32" viewBox="0 0 33 32" fill="none" xmlns="http://www.w3.org/2000/svg">
<g filter="url(#filter0_d)">
<path d="M29 7.46875V21.5312C29 22.8252 27.9502 23.875 26.6562 23.875H6.34375C5.0498 23.875 4 22.8252 4 21.5312V7.46875C4 6.1748 5.0498 5.125 6.34375 5.125H10.6406L11.2412 3.51855C11.583 2.60547 12.457 2 13.4336 2H19.5615C20.5381 2 21.4121 2.60547 21.7539 3.51855L22.3594 5.125H26.6562C27.9502 5.125 29 6.1748 29 7.46875ZM22.3594 14.5C22.3594 11.2676 19.7324 8.64062 16.5 8.64062C13.2676 8.64062 10.6406 11.2676 10.6406 14.5C10.6406 17.7324 13.2676 20.3594 16.5 20.3594C19.7324 20.3594 22.3594 17.7324 22.3594 14.5ZM20.7969 14.5C20.7969 16.8682 18.8682 18.7969 16.5 18.7969C14.1318 18.7969 12.2031 16.8682 12.2031 14.5C12.2031 12.1318 14.1318 10.2031 16.5 10.2031C18.8682 10.2031 20.7969 12.1318 20.7969 14.5Z" fill="#C4C4C4"/>
</g>
<defs>
<filter id="filter0_d" x="0" y="0" width="33" height="33" filterUnits="userSpaceOnUse" color-interpolation-filters="sRGB">
<feFlood flood-opacity="0" result="BackgroundImageFix"/>
<feColorMatrix in="SourceAlpha" type="matrix" values="0 0 0 0 0 0 0 0 0 0 0 0 0 0 0 0 0 0 127 0" result="hardAlpha"/>
<feOffset dy="4"/>
<feGaussianBlur stdDeviation="2"/>
<feComposite in2="hardAlpha" operator="out"/>
<feColorMatrix type="matrix" values="0 0 0 0 0 0 0 0 0 0 0 0 0 0 0 0 0 0 0.25 0"/>
<feBlend mode="normal" in2="BackgroundImageFix" result="effect1_dropShadow"/>
<feBlend mode="normal" in="SourceGraphic" in2="effect1_dropShadow" result="shape"/>
</filter>
</defs>
</svg>
