<svg width="22" height="27" viewBox="0 0 22 27" fill="none" xmlns="http://www.w3.org/2000/svg">
<path d="M8.9375 4.04999C4.00144 4.04999 0 7.97868 0 12.825C0 17.6713 4.00144 21.6 8.9375 21.6C13.8736 21.6 17.875 17.6713 17.875 12.825C17.875 7.97868 13.8736 4.04999 8.9375 4.04999ZM13.1588 16.3192C13.1014 16.3852 11.7254 17.9373 9.19997 17.9373C6.14781 17.9373 3.99301 15.6989 3.99301 12.7867C3.99301 9.90992 6.22753 7.7127 9.17395 7.7127C11.587 7.7127 12.8486 9.03302 12.9011 9.08924C12.9658 9.15848 13.0053 9.24684 13.0134 9.34047C13.0214 9.4341 12.9976 9.52772 12.9457 9.60665L12.1392 10.8329C11.9933 11.0546 11.6788 11.093 11.4821 10.9141C11.4737 10.9065 10.526 10.0691 9.25201 10.0691C7.59006 10.0691 6.5882 11.2571 6.5882 12.7611C6.5882 14.1624 7.50768 15.5809 9.26502 15.5809C10.6596 15.5809 11.6176 14.5782 11.6271 14.568C11.8121 14.3711 12.1338 14.3899 12.2941 14.6053L13.1787 15.7932C13.2362 15.8703 13.2654 15.9641 13.2618 16.0596C13.2582 16.155 13.2219 16.2465 13.1588 16.3192V16.3192Z" fill="white"/>
</svg>
