<svg width="16" height="14" viewBox="0 0 16 14" fill="none" xmlns="http://www.w3.org/2000/svg">
<path d="M14.6822 7.11837C15.2349 6.57001 15.2349 5.68093 14.6822 5.13257L9.9645 0.451962C9.41179 -0.0963996 8.51568 -0.0964288 7.96291 0.451962L0.414534 7.94093C-0.138178 8.48929 -0.138178 9.37837 0.414534 9.92673L3.24518 12.7351C3.51061 12.9984 3.87061 13.1464 4.24598 13.1464H14.7429C14.9383 13.1464 15.0968 12.9892 15.0968 12.7953V11.6252C15.0968 11.4313 14.9383 11.2741 14.7429 11.2741H10.4935L14.6822 7.11837V7.11837ZM5.75902 5.28629L9.80958 9.30497L7.82477 11.2741H4.44142L2.08255 8.93383L5.75902 5.28629V5.28629Z" fill="#3B7FE7"/>
</svg>
