<svg width="14" height="14" viewBox="0 0 14 14" fill="none" xmlns="http://www.w3.org/2000/svg">
<path d="M12.9741 2.74267C12.7724 2.2171 12.4815 1.74083 12.1178 1.34053C11.7539 0.939032 11.3247 0.619969 10.8538 0.400688C10.3654 0.172406 9.84167 0.0555575 9.31287 0.0569272C8.571 0.0569272 7.84719 0.285537 7.21819 0.717355C7.06771 0.820652 6.92475 0.934111 6.78932 1.05773C6.65389 0.934111 6.51093 0.820652 6.36045 0.717355C5.73144 0.285537 5.00763 0.0569272 4.26577 0.0569272C3.73156 0.0569272 3.21391 0.172079 2.72485 0.400688C2.25234 0.620831 1.82648 0.937497 1.46081 1.34053C1.09665 1.74038 0.805741 2.21676 0.604583 2.74267C0.395415 3.28964 0.288574 3.87047 0.288574 4.46825C0.288574 5.03215 0.390901 5.61976 0.594049 6.21753C0.764092 6.71709 1.00787 7.23527 1.31936 7.75853C1.81294 8.5866 2.4916 9.45024 3.33429 10.3257C4.73075 11.777 6.11366 12.7795 6.17235 12.8201L6.52899 13.0775C6.68699 13.191 6.89014 13.191 7.04814 13.0775L7.40478 12.8201C7.46347 12.7778 8.84488 11.777 10.2428 10.3257C11.0855 9.45024 11.7642 8.5866 12.2578 7.75853C12.5693 7.23527 12.8145 6.71709 12.9831 6.21753C13.1862 5.61976 13.2886 5.03215 13.2886 4.46825C13.2901 3.87047 13.1832 3.28964 12.9741 2.74267Z" fill="#FD0000" fill-opacity="0.78"/>
</svg>
