<svg width="25" height="25" viewBox="0 0 25 25" fill="none" xmlns="http://www.w3.org/2000/svg">
<g clip-path="url(#clip0)">
<path d="M24.7768 11.3839H16.7411V3.34821C16.7411 2.36217 15.9414 1.5625 14.9554 1.5625H13.1696C12.1836 1.5625 11.3839 2.36217 11.3839 3.34821V11.3839H3.34821C2.36217 11.3839 1.5625 12.1836 1.5625 13.1696V14.9554C1.5625 15.9414 2.36217 16.7411 3.34821 16.7411H11.3839V24.7768C11.3839 25.7628 12.1836 26.5625 13.1696 26.5625H14.9554C15.9414 26.5625 16.7411 25.7628 16.7411 24.7768V16.7411H24.7768C25.7628 16.7411 26.5625 15.9414 26.5625 14.9554V13.1696C26.5625 12.1836 25.7628 11.3839 24.7768 11.3839Z" fill="#1BD494" fill-opacity="0.8"/>
</g>
<defs>
<clipPath id="clip0">
<rect width="25" height="25" fill="white"/>
</clipPath>
</defs>
</svg>
