<svg width="70" height="71" viewBox="0 0 70 71" fill="none" xmlns="http://www.w3.org/2000/svg">
<path d="M0 0H69.8896V70.5691H0V0Z" fill="#1BD494" fill-opacity="0.8"/>
<path d="M15.537 43.3114C15.3977 43.0547 15.196 42.8604 14.932 42.7284C14.6753 42.5891 14.371 42.5194 14.019 42.5194C13.4103 42.5194 12.9227 42.7211 12.556 43.1244C12.1893 43.5204 12.006 44.0521 12.006 44.7194C12.006 45.4307 12.1967 45.9881 12.578 46.3914C12.9667 46.7874 13.4983 46.9854 14.173 46.9854C14.635 46.9854 15.0237 46.8681 15.339 46.6334C15.6617 46.3987 15.8963 46.0614 16.043 45.6214H13.656V44.2354H17.748V45.9844C17.6087 46.4537 17.3703 46.8901 17.033 47.2934C16.703 47.6967 16.2813 48.0231 15.768 48.2724C15.2547 48.5217 14.6753 48.6464 14.03 48.6464C13.2673 48.6464 12.5853 48.4814 11.984 48.1514C11.39 47.8141 10.9243 47.3484 10.587 46.7544C10.257 46.1604 10.092 45.4821 10.092 44.7194C10.092 43.9567 10.257 43.2784 10.587 42.6844C10.9243 42.0831 11.39 41.6174 11.984 41.2874C12.578 40.9501 13.2563 40.7814 14.019 40.7814C14.943 40.7814 15.7203 41.0051 16.351 41.4524C16.989 41.8997 17.4107 42.5194 17.616 43.3114H15.537ZM24.5759 45.4234C24.5759 45.5994 24.5649 45.7827 24.5429 45.9734H20.2859C20.3152 46.3547 20.4362 46.6481 20.6489 46.8534C20.8689 47.0514 21.1366 47.1504 21.4519 47.1504C21.9212 47.1504 22.2476 46.9524 22.4309 46.5564H24.4329C24.3302 46.9597 24.1432 47.3227 23.8719 47.6454C23.6079 47.9681 23.2742 48.2211 22.8709 48.4044C22.4676 48.5877 22.0166 48.6794 21.5179 48.6794C20.9166 48.6794 20.3812 48.5511 19.9119 48.2944C19.4426 48.0377 19.0759 47.6711 18.8119 47.1944C18.5479 46.7177 18.4159 46.1604 18.4159 45.5224C18.4159 44.8844 18.5442 44.3271 18.8009 43.8504C19.0649 43.3737 19.4316 43.0071 19.9009 42.7504C20.3702 42.4937 20.9092 42.3654 21.5179 42.3654C22.1119 42.3654 22.6399 42.4901 23.1019 42.7394C23.5639 42.9887 23.9232 43.3444 24.1799 43.8064C24.4439 44.2684 24.5759 44.8074 24.5759 45.4234ZM22.6509 44.9284C22.6509 44.6057 22.5409 44.3491 22.3209 44.1584C22.1009 43.9677 21.8259 43.8724 21.4959 43.8724C21.1806 43.8724 20.9129 43.9641 20.6929 44.1474C20.4802 44.3307 20.3482 44.5911 20.2969 44.9284H22.6509ZM28.9892 46.9964V48.5914H28.0322C27.3502 48.5914 26.8186 48.4264 26.4372 48.0964C26.0559 47.7591 25.8652 47.2127 25.8652 46.4574V44.0154H25.1172V42.4534H25.8652V40.9574H27.7462V42.4534H28.9782V44.0154H27.7462V46.4794C27.7462 46.6627 27.7902 46.7947 27.8782 46.8754C27.9662 46.9561 28.1129 46.9964 28.3182 46.9964H28.9892ZM41.113 40.8694V48.5914H39.232V43.9604L37.505 48.5914H35.987L34.249 43.9494V48.5914H32.368V40.8694H34.59L36.757 46.2154L38.902 40.8694H41.113ZM45.2597 48.6794C44.6584 48.6794 44.1157 48.5511 43.6317 48.2944C43.155 48.0377 42.7774 47.6711 42.4987 47.1944C42.2274 46.7177 42.0917 46.1604 42.0917 45.5224C42.0917 44.8917 42.231 44.3381 42.5097 43.8614C42.7884 43.3774 43.1697 43.0071 43.6537 42.7504C44.1377 42.4937 44.6804 42.3654 45.2817 42.3654C45.883 42.3654 46.4257 42.4937 46.9097 42.7504C47.3937 43.0071 47.775 43.3774 48.0537 43.8614C48.3324 44.3381 48.4717 44.8917 48.4717 45.5224C48.4717 46.1531 48.3287 46.7104 48.0427 47.1944C47.764 47.6711 47.379 48.0377 46.8877 48.2944C46.4037 48.5511 45.861 48.6794 45.2597 48.6794ZM45.2597 47.0514C45.619 47.0514 45.9234 46.9194 46.1727 46.6554C46.4294 46.3914 46.5577 46.0137 46.5577 45.5224C46.5577 45.0311 46.433 44.6534 46.1837 44.3894C45.9417 44.1254 45.641 43.9934 45.2817 43.9934C44.915 43.9934 44.6107 44.1254 44.3687 44.3894C44.1267 44.6461 44.0057 45.0237 44.0057 45.5224C44.0057 46.0137 44.123 46.3914 44.3577 46.6554C44.5997 46.9194 44.9004 47.0514 45.2597 47.0514ZM51.3506 43.4764C51.5706 43.1391 51.8456 42.8751 52.1756 42.6844C52.5056 42.4864 52.8723 42.3874 53.2756 42.3874V44.3784H52.7586C52.2893 44.3784 51.9373 44.4811 51.7026 44.6864C51.4679 44.8844 51.3506 45.2364 51.3506 45.7424V48.5914H49.4696V42.4534H51.3506V43.4764ZM59.9607 45.4234C59.9607 45.5994 59.9497 45.7827 59.9277 45.9734H55.6707C55.7 46.3547 55.821 46.6481 56.0337 46.8534C56.2537 47.0514 56.5213 47.1504 56.8367 47.1504C57.306 47.1504 57.6323 46.9524 57.8157 46.5564H59.8177C59.715 46.9597 59.528 47.3227 59.2567 47.6454C58.9927 47.9681 58.659 48.2211 58.2557 48.4044C57.8523 48.5877 57.4013 48.6794 56.9027 48.6794C56.3013 48.6794 55.766 48.5511 55.2967 48.2944C54.8273 48.0377 54.4607 47.6711 54.1967 47.1944C53.9327 46.7177 53.8007 46.1604 53.8007 45.5224C53.8007 44.8844 53.929 44.3271 54.1857 43.8504C54.4497 43.3737 54.8163 43.0071 55.2857 42.7504C55.755 42.4937 56.294 42.3654 56.9027 42.3654C57.4967 42.3654 58.0247 42.4901 58.4867 42.7394C58.9487 42.9887 59.308 43.3444 59.5647 43.8064C59.8287 44.2684 59.9607 44.8074 59.9607 45.4234ZM58.0357 44.9284C58.0357 44.6057 57.9257 44.3491 57.7057 44.1584C57.4857 43.9677 57.2107 43.8724 56.8807 43.8724C56.5653 43.8724 56.2977 43.9641 56.0777 44.1474C55.865 44.3307 55.733 44.5911 55.6817 44.9284H58.0357Z" fill="white"/>
<path d="M42.1963 24.3391H37.5887V19.4785C37.5887 18.8821 37.1302 18.3984 36.5648 18.3984H35.5409C34.9755 18.3984 34.517 18.8821 34.517 19.4785V24.3391H29.9094C29.344 24.3391 28.8855 24.8228 28.8855 25.4193V26.4994C28.8855 27.0959 29.344 27.5796 29.9094 27.5796H34.517V32.4402C34.517 33.0366 34.9755 33.5203 35.5409 33.5203H36.5648C37.1302 33.5203 37.5887 33.0366 37.5887 32.4402V27.5796H42.1963C42.7617 27.5796 43.2202 27.0959 43.2202 26.4994V25.4193C43.2202 24.8228 42.7617 24.3391 42.1963 24.3391Z" fill="white"/>
</svg>
