<svg width="193" height="102" viewBox="0 0 193 102" fill="none" xmlns="http://www.w3.org/2000/svg">
<path d="M165.693 42.5889C168.353 44.7444 171.321 45.0884 174.596 43.6208C173.222 41.9188 172.895 40.0676 173.261 38.1175H166.88C167.163 39.8311 167.086 41.4268 165.693 42.5889Z" fill="#FFB8B8"/>
<path d="M176.228 98.998L179.642 97.6223L181.126 83.0613V75.3796L173.26 75.2649L175.486 82.9467L176.228 98.998Z" fill="#FFB8B8"/>
<path d="M166.335 98.998L162.922 97.6223L161.438 83.0613V75.3796L169.303 75.2649L167.077 82.9467L166.335 98.998Z" fill="#FFB8B8"/>
<path d="M161.092 76.9847L169.402 76.4115L170.738 70.5642L172.37 76.2968L181.422 75.8382C181.62 73.0524 181.118 70.1852 179.938 67.2392L160.053 66.8953L161.092 76.9847Z" fill="#2F2E41"/>
<path d="M152.454 55.025L142.458 49.0778C142.354 49.0161 142.24 48.9654 142.119 48.9273L140.666 48.4706C139.499 48.1038 137.276 46.8837 138.36 45.6273C139.234 44.6144 142.58 46.4289 142.991 47.1012C143.121 47.3127 143.335 47.4871 143.601 47.5993L145.632 48.4594C145.682 48.4803 145.733 48.499 145.785 48.5153L153.519 50.9373C153.733 51.0045 153.965 51.0311 154.196 51.015C154.426 50.999 154.648 50.9407 154.844 50.845L156.246 50.158C156.445 50.0603 156.673 50.0016 156.908 49.987C157.144 49.9724 157.38 50.0024 157.597 50.0743C157.815 50.1462 158.006 50.258 158.154 50.3998C158.303 50.5416 158.405 50.7093 158.451 50.8884L158.914 52.6955C158.981 52.9556 158.926 53.2257 158.76 53.4577C158.594 53.6898 158.327 53.8689 158.006 53.9634L153.859 55.1846C153.627 55.253 153.376 55.2742 153.13 55.2463C152.884 55.2183 152.651 55.1421 152.454 55.025Z" fill="#FFB8B8"/>
<path d="M154.311 50.6919C157.079 50.1185 156.788 53.1058 158.9 54.5747L163.051 52.0424L160.647 43.0475C160.002 43.1899 159.408 43.4463 158.913 43.7964C158.418 44.1465 158.036 44.5807 157.795 45.0648L154.311 50.6919Z" fill="#6C63FF"/>
<path d="M159.46 67.4686H180.384C176.997 60.4181 177.327 53.1668 180.21 45.7773C180.259 45.6547 180.25 45.5228 180.186 45.4044C180.122 45.2861 180.007 45.1887 179.86 45.1291L173.854 42.7036C171.497 43.8887 168.963 43.5245 166.286 41.901L159.757 43.2768C161.534 51.5248 161.585 59.6034 159.46 67.4686Z" fill="#6C63FF"/>
<path d="M164.692 101.691L155.972 101.976C155.592 101.989 155.22 101.892 154.927 101.705C154.634 101.519 154.44 101.255 154.384 100.964C154.327 100.671 154.414 100.372 154.628 100.126C154.842 99.8793 155.167 99.7037 155.54 99.6331L157.019 99.353L162.832 96.7498C163.693 97.4388 164.879 98.0214 166.329 98.5175L166.346 100.348C166.349 100.694 166.179 101.027 165.87 101.277C165.561 101.528 165.139 101.676 164.692 101.691Z" fill="#2F2E41"/>
<path d="M192.914 102H0.0701904V101.632H193L192.914 102Z" fill="#3F3D56"/>
<path d="M177.799 101.589L186.519 101.874C186.899 101.887 187.271 101.79 187.564 101.603C187.857 101.416 188.051 101.152 188.107 100.862C188.164 100.569 188.077 100.27 187.863 100.023C187.649 99.777 187.324 99.6014 186.951 99.5308L185.472 99.2507L179.659 96.6475C178.798 97.3365 177.612 97.9191 176.162 98.4152L176.145 100.245C176.142 100.591 176.313 100.925 176.621 101.175C176.93 101.426 177.352 101.574 177.799 101.589Z" fill="#2F2E41"/>
<path d="M169.402 40.1812C172.025 40.1812 174.151 38.5386 174.151 36.5123C174.151 34.486 172.025 32.8434 169.402 32.8434C166.78 32.8434 164.654 34.486 164.654 36.5123C164.654 38.5386 166.78 40.1812 169.402 40.1812Z" fill="#FFB8B8"/>
<path d="M176.822 66.322L175.254 68.6789C175.115 68.8868 175.035 69.1151 175.019 69.3486C175.003 69.5822 175.051 69.8157 175.16 70.0339C175.269 70.2521 175.437 70.4499 175.652 70.6145C175.867 70.7791 176.125 70.9066 176.408 70.9887C176.708 71.0756 177.029 71.1095 177.349 71.0879C177.668 71.0663 177.977 70.9897 178.252 70.8638C178.528 70.7379 178.764 70.5659 178.943 70.3603C179.121 70.1548 179.238 69.921 179.284 69.676L179.939 66.2074L182.313 57.4938L182.165 53.137H177.416C179.036 56.3774 178.232 61.1572 176.822 66.322Z" fill="#FFB8B8"/>
<path d="M176.674 53.5956H183.055L182.128 48.1888C182.003 47.4555 181.642 46.7582 181.077 46.1606C180.513 45.5629 179.765 45.0839 178.9 44.7673L176.674 53.5956Z" fill="#6C63FF"/>
<path d="M174.451 34.4914C174.546 34.0013 174.506 33.5013 174.334 33.0238C174.162 32.5464 173.862 32.1024 173.453 31.7206C172.643 30.9799 171.285 30.3736 169.031 30.6596C164.116 31.2836 162.698 34.4454 163.18 35.2405C163.661 36.0357 165.137 37.8789 165.137 37.8789C165.137 37.8789 164.054 36.0543 165.23 35.6829C166.406 35.3115 170.956 33.8484 172.545 34.5075C172.994 34.6819 173.376 34.9453 173.651 35.2708C173.926 35.5962 174.085 35.9722 174.11 36.3604L174.451 34.4914Z" fill="#2F2E41"/>
<path d="M93.173 19.22L91.2638 19.9685C89.0646 16.6229 86.1511 13.5877 82.6458 10.9904C65.4316 -1.79553 37.9632 -1.37751 21.414 11.9223C4.86482 25.2221 5.40588 46.4444 22.6201 59.2304C25.8964 61.6688 29.6499 63.6928 33.7422 65.2279L32.8083 66.7163C26.3217 64.2829 20.6777 60.6919 16.3425 56.2401C12.0074 51.7882 9.10554 46.6033 7.87676 41.1137C6.64799 35.6241 7.12756 29.9873 9.27584 24.6692C11.4241 19.3511 15.1795 14.5043 20.2316 10.5291C25.2837 6.55403 31.4875 3.56475 38.3306 1.80829C45.1736 0.051831 52.4594 -0.421392 59.586 0.427722C66.7125 1.27684 73.4753 3.42391 79.3155 6.69155C85.1557 9.9592 89.9057 14.2536 93.173 19.22Z" fill="#E6E6E6"/>
<path d="M28.5788 49.9957C25.7705 52.2526 24.2376 55.279 24.3174 58.4091C24.3972 61.5392 26.0832 64.5166 29.0043 66.6864C31.9255 68.8561 35.8427 70.0404 39.894 69.9787C43.9454 69.9171 47.7991 68.6145 50.6075 66.3576L53.2378 64.2437L31.2092 47.8818L28.5788 49.9957Z" fill="#E6E6E6"/>
<path d="M29.7332 46.6812C29.1081 47.1847 28.7671 47.8592 28.7848 48.5568C28.8026 49.2543 29.1778 49.918 29.8281 50.4021L50.0327 65.4093C50.6839 65.893 51.5571 66.157 52.4603 66.1432C53.3635 66.1295 54.2226 65.8391 54.8487 65.336C55.4747 64.8328 55.8164 64.1582 55.7986 63.4604C55.7809 62.7626 55.405 62.0988 54.7538 61.6151L34.5492 46.6079C33.8975 46.125 33.0245 45.8614 32.1216 45.8752C31.2187 45.8889 30.3598 46.1788 29.7332 46.6812Z" fill="#535461"/>
<path d="M90.3321 34.4325L92.9625 32.3187C95.7708 30.0617 97.3037 27.0353 97.2239 23.9052C97.1441 20.7751 95.4581 17.7977 92.537 15.6279C91.0905 14.5536 89.3844 13.7099 87.5159 13.145C85.6475 12.5801 83.6533 12.305 81.6473 12.3356C77.5959 12.3972 73.7421 13.6998 70.9338 15.9567L68.3035 18.0706L90.3321 34.4325Z" fill="#E6E6E6"/>
<path d="M66.6929 16.9784C66.0678 17.4819 65.7268 18.1564 65.7446 18.854C65.7623 19.5515 66.1375 20.2152 66.7878 20.6993L86.9924 35.7064C87.6438 36.1895 88.5168 36.453 89.4195 36.4391C90.3223 36.4251 91.1809 36.1347 91.8067 35.6318C92.4325 35.1289 92.7742 34.4546 92.7567 33.7571C92.7392 33.0597 92.364 32.3961 91.7136 31.9123L71.5089 16.9051C70.8572 16.4222 69.9842 16.1586 69.0813 16.1724C68.1785 16.1861 67.3195 16.476 66.6929 16.9784Z" fill="#535461"/>
<path d="M75.2158 51.6596V50.4403C75.2158 50.4403 82.1025 47.4474 87.6978 50.4403V51.5487L75.2158 51.6596Z" fill="#535461"/>
<path d="M137.913 51.6596V50.4403C137.913 50.4403 144.8 47.4474 150.395 50.4403V51.5487L137.913 51.6596Z" fill="#535461"/>
<path d="M95.8758 51.5488H89.1327C89.1327 51.5488 87.411 49.9969 81.6722 50.1077C75.9333 50.2186 74.7855 51.5488 74.7855 51.5488C74.7855 51.5488 69.1184 54.4862 67.8271 58.1441C67.8271 58.1441 60.8688 74.2724 60.7253 86.9089C60.5818 99.5455 66.8946 101.319 70.1944 101.652C73.4943 101.984 79.3766 101.541 85.1155 90.3452L87.5545 83.8052C87.5545 83.8052 87.9849 79.9256 93.1499 82.3642C98.3149 84.8028 102.906 81.034 102.906 81.034H122.275C122.275 81.034 128.731 84.1377 134.613 81.6991C134.613 81.6991 136.909 79.3713 139.061 87.2415C139.061 87.2415 145.66 103.425 155.847 101.762C166.033 100.1 164.886 86.5764 164.886 86.5764C164.886 86.5764 163.523 65.9034 157.927 58.5875C157.927 58.5875 152.547 50.9945 148.96 50.662C148.96 50.662 141.213 49.5535 138.2 50.5511L136.478 51.6596L95.8758 51.5488Z" fill="#E6E6E6"/>
<path d="M80.2374 72.0554C87.131 72.0554 92.7194 67.7378 92.7194 62.4117C92.7194 57.0856 87.131 52.768 80.2374 52.768C73.3438 52.768 67.7554 57.0856 67.7554 62.4117C67.7554 67.7378 73.3438 72.0554 80.2374 72.0554Z" fill="#535461"/>
<path d="M145.374 72.0554C152.267 72.0554 157.856 67.7378 157.856 62.4117C157.856 57.0856 152.267 52.768 145.374 52.768C138.48 52.768 132.892 57.0856 132.892 62.4117C132.892 67.7378 138.48 72.0554 145.374 72.0554Z" fill="#535461"/>
<path d="M82.4124 60.2613L80.7481 61.3986C80.6072 61.4945 80.4259 61.5473 80.2381 61.5473C80.0503 61.5473 79.869 61.4945 79.7281 61.3986L78.0609 60.2613C77.9794 60.2058 77.914 60.1376 77.869 60.0612C77.824 59.9848 77.8004 59.9019 77.7998 59.8179V56.6887C77.8002 56.5307 77.8817 56.3793 78.0264 56.2677C78.1711 56.1561 78.3672 56.0935 78.5717 56.0935H81.9074C82.1117 56.0932 82.3078 56.1556 82.4526 56.267C82.5973 56.3784 82.6789 56.5297 82.6793 56.6876V59.8157C82.6784 59.9004 82.6541 59.9839 82.6081 60.0608C82.5621 60.1376 82.4954 60.206 82.4124 60.2613Z" fill="#E6E6E6"/>
<path d="M82.4124 64.5611L80.7481 63.4249C80.6072 63.329 80.4259 63.2761 80.2381 63.2761C80.0503 63.2761 79.869 63.329 79.7281 63.4249L78.0609 64.5622C77.9794 64.6177 77.914 64.6859 77.869 64.7623C77.824 64.8387 77.8004 64.9216 77.7998 65.0056V68.1314C77.7994 68.2893 77.8802 68.4408 78.0245 68.5527C78.1687 68.6645 78.3645 68.7275 78.5688 68.7278H81.9074C82.1117 68.7281 82.3078 68.6657 82.4526 68.5542C82.5974 68.4428 82.6789 68.2915 82.6793 68.1337V65.0067C82.6784 64.922 82.6541 64.8385 82.6081 64.7616C82.5621 64.6848 82.4954 64.6164 82.4124 64.5611Z" fill="#E6E6E6"/>
<path d="M77.4556 64.0944L78.9276 62.8063C79.0517 62.6974 79.1201 62.5573 79.1201 62.4123C79.1201 62.2672 79.0517 62.1271 78.9276 62.0182L77.4556 60.7301C77.3837 60.6672 77.2954 60.6167 77.1965 60.5819C77.0976 60.5472 76.9904 60.5289 76.8817 60.5284H72.8359C72.6314 60.5287 72.4354 60.5917 72.291 60.7035C72.1466 60.8153 72.0654 60.9668 72.0654 61.1248V63.702C72.0651 63.8599 72.1459 64.0114 72.2901 64.1232C72.4343 64.2351 72.6301 64.2981 72.8344 64.2984H76.8831C76.9918 64.2975 77.0989 64.2788 77.1976 64.2437C77.2963 64.2085 77.3842 64.1577 77.4556 64.0944Z" fill="#E6E6E6"/>
<path d="M83.021 64.0945L81.5519 62.8053C81.4275 62.6965 81.3589 62.5564 81.3589 62.4112C81.3589 62.2661 81.4275 62.1259 81.5519 62.0172L83.0239 60.7291C83.0957 60.6661 83.184 60.6156 83.2829 60.5808C83.3818 60.546 83.4891 60.5278 83.5978 60.5273H87.6436C87.8479 60.5271 88.044 60.5895 88.1888 60.7009C88.3336 60.8123 88.4151 60.9636 88.4155 61.1215V63.701C88.4159 63.8588 88.3351 64.0103 88.1908 64.1222C88.0466 64.234 87.8508 64.297 87.6465 64.2973H83.5992C83.4897 64.2972 83.3815 64.279 83.2818 64.2441C83.1821 64.2091 83.0932 64.1581 83.021 64.0945Z" fill="#E6E6E6"/>
<path d="M97.1676 79.9256C102.159 79.9256 106.206 76.799 106.206 72.9422C106.206 69.0854 102.159 65.9588 97.1676 65.9588C92.1756 65.9588 88.1289 69.0854 88.1289 72.9422C88.1289 76.799 92.1756 79.9256 97.1676 79.9256Z" fill="#535461"/>
<path d="M128.444 79.9256C133.436 79.9256 137.482 76.799 137.482 72.9422C137.482 69.0854 133.436 65.9588 128.444 65.9588C123.452 65.9588 119.405 69.0854 119.405 72.9422C119.405 76.799 123.452 79.9256 128.444 79.9256Z" fill="#535461"/>
<path d="M97.1674 77.5978C100.495 77.5978 103.193 75.5134 103.193 72.9422C103.193 70.371 100.495 68.2866 97.1674 68.2866C93.8394 68.2866 91.1416 70.371 91.1416 72.9422C91.1416 75.5134 93.8394 77.5978 97.1674 77.5978Z" fill="#E6E6E6"/>
<path d="M97.1672 76.1567C96.3443 76.1567 95.5399 75.9682 94.8557 75.615C94.1715 75.2618 93.6382 74.7597 93.3233 74.1723C93.0084 73.585 92.926 72.9386 93.0865 72.3151C93.2471 71.6915 93.6433 71.1187 94.2252 70.6691C94.8071 70.2196 95.5484 69.9134 96.3555 69.7894C97.1626 69.6653 97.9992 69.729 98.7594 69.9723C99.5197 70.2156 100.17 70.6276 100.627 71.1563C101.084 71.6849 101.328 72.3064 101.328 72.9422C101.327 73.7944 100.888 74.6115 100.108 75.2141C99.3279 75.8168 98.2703 76.1558 97.1672 76.1567ZM97.1672 69.9493C96.4011 69.9493 95.6522 70.1248 95.0151 70.4537C94.3781 70.7826 93.8816 71.25 93.5884 71.7969C93.2952 72.3437 93.2185 72.9455 93.368 73.5261C93.5174 74.1066 93.8864 74.6399 94.4281 75.0585C94.9699 75.477 95.6601 75.7621 96.4115 75.8775C97.1629 75.993 97.9418 75.9338 98.6496 75.7072C99.3575 75.4807 99.9625 75.0971 100.388 74.6049C100.814 74.1128 101.041 73.5341 101.041 72.9422C101.04 72.1487 100.631 71.388 99.9051 70.8269C99.1789 70.2658 98.1942 69.9502 97.1672 69.9493Z" fill="#535461"/>
<path d="M128.444 77.5978C131.772 77.5978 134.47 75.5134 134.47 72.9422C134.47 70.371 131.772 68.2866 128.444 68.2866C125.116 68.2866 122.418 70.371 122.418 72.9422C122.418 75.5134 125.116 77.5978 128.444 77.5978Z" fill="#E6E6E6"/>
<path d="M128.444 76.1567C127.621 76.1567 126.817 75.9682 126.133 75.615C125.448 75.2618 124.915 74.7597 124.6 74.1723C124.285 73.585 124.203 72.9386 124.363 72.3151C124.524 71.6915 124.92 71.1187 125.502 70.6691C126.084 70.2196 126.825 69.9134 127.632 69.7894C128.44 69.6653 129.276 69.729 130.036 69.9723C130.797 70.2156 131.447 70.6276 131.904 71.1563C132.361 71.6849 132.605 72.3064 132.605 72.9422C132.604 73.7944 132.165 74.6115 131.385 75.2141C130.605 75.8168 129.547 76.1558 128.444 76.1567ZM128.444 69.9493C127.678 69.9493 126.929 70.1248 126.292 70.4537C125.655 70.7826 125.158 71.25 124.865 71.7969C124.572 72.3437 124.495 72.9455 124.645 73.5261C124.794 74.1066 125.163 74.6399 125.705 75.0585C126.247 75.477 126.937 75.7621 127.688 75.8775C128.44 75.993 129.219 75.9338 129.927 75.7072C130.634 75.4807 131.239 75.0971 131.665 74.6049C132.091 74.1128 132.318 73.5341 132.318 72.9422C132.317 72.1487 131.908 71.388 131.182 70.8269C130.456 70.2658 129.471 69.9502 128.444 69.9493Z" fill="#535461"/>
<path d="M113.092 75.7134C114.519 75.7134 115.675 74.8201 115.675 73.7181C115.675 72.6162 114.519 71.7228 113.092 71.7228C111.666 71.7228 110.51 72.6162 110.51 73.7181C110.51 74.8201 111.666 75.7134 113.092 75.7134Z" fill="#535461"/>
<path d="M109.145 67.4941C109.457 67.4941 109.709 67.2991 109.709 67.0584C109.709 66.8178 109.457 66.6228 109.145 66.6228C108.834 66.6228 108.581 66.8178 108.581 67.0584C108.581 67.2991 108.834 67.4941 109.145 67.4941Z" fill="#535461"/>
<path d="M111.257 67.4941C111.569 67.4941 111.821 67.2991 111.821 67.0584C111.821 66.8178 111.569 66.6228 111.257 66.6228C110.946 66.6228 110.694 66.8178 110.694 67.0584C110.694 67.2991 110.946 67.4941 111.257 67.4941Z" fill="#535461"/>
<path d="M110.976 69.5614C111.288 69.5614 111.54 69.3663 111.54 69.1257C111.54 68.8852 111.288 68.6901 110.976 68.6901C110.665 68.6901 110.412 68.8852 110.412 69.1257C110.412 69.3663 110.665 69.5614 110.976 69.5614Z" fill="#535461"/>
<path d="M112.949 69.6168C113.266 69.6168 113.523 69.4183 113.523 69.1734C113.523 68.9285 113.266 68.73 112.949 68.73C112.632 68.73 112.375 68.9285 112.375 69.1734C112.375 69.4183 112.632 69.6168 112.949 69.6168Z" fill="#535461"/>
<path d="M114.919 69.5614C115.23 69.5614 115.483 69.3663 115.483 69.1257C115.483 68.8852 115.23 68.6901 114.919 68.6901C114.607 68.6901 114.355 68.8852 114.355 69.1257C114.355 69.3663 114.607 69.5614 114.919 69.5614Z" fill="#535461"/>
<path d="M110.131 68.5826C110.443 68.5826 110.695 68.3876 110.695 68.147C110.695 67.9064 110.443 67.7113 110.131 67.7113C109.82 67.7113 109.568 67.9064 109.568 68.147C109.568 68.3876 109.82 68.5826 110.131 68.5826Z" fill="#535461"/>
<path d="M111.945 68.6192C112.262 68.6192 112.519 68.4207 112.519 68.1758C112.519 67.9309 112.262 67.7324 111.945 67.7324C111.628 67.7324 111.371 67.9309 111.371 68.1758C111.371 68.4207 111.628 68.6192 111.945 68.6192Z" fill="#535461"/>
<path d="M113.81 68.6192C114.127 68.6192 114.384 68.4207 114.384 68.1758C114.384 67.9309 114.127 67.7324 113.81 67.7324C113.493 67.7324 113.236 67.9309 113.236 68.1758C113.236 68.4207 113.493 68.6192 113.81 68.6192Z" fill="#535461"/>
<path d="M115.764 68.5826C116.075 68.5826 116.328 68.3876 116.328 68.147C116.328 67.9064 116.075 67.7113 115.764 67.7113C115.453 67.7113 115.2 67.9064 115.2 68.147C115.2 68.3876 115.453 68.5826 115.764 68.5826Z" fill="#535461"/>
<path d="M112.949 67.5107C113.266 67.5107 113.523 67.3122 113.523 67.0673C113.523 66.8224 113.266 66.6239 112.949 66.6239C112.632 66.6239 112.375 66.8224 112.375 67.0673C112.375 67.3122 112.632 67.5107 112.949 67.5107Z" fill="#535461"/>
<path d="M114.957 67.5107C115.274 67.5107 115.531 67.3122 115.531 67.0673C115.531 66.8224 115.274 66.6239 114.957 66.6239C114.64 66.6239 114.384 66.8224 114.384 67.0673C114.384 67.3122 114.64 67.5107 114.957 67.5107Z" fill="#535461"/>
<path d="M116.609 67.4941C116.92 67.4941 117.173 67.2991 117.173 67.0584C117.173 66.8178 116.92 66.6228 116.609 66.6228C116.297 66.6228 116.045 66.8178 116.045 67.0584C116.045 67.2991 116.297 67.4941 116.609 67.4941Z" fill="#535461"/>
<path d="M91.6436 52.4935C91.3782 52.4937 91.1237 52.5753 90.9361 52.7202C90.7484 52.8652 90.6429 53.0618 90.6426 53.2669V55.5947C90.6429 55.7997 90.7484 55.9963 90.9361 56.1413C91.1237 56.2863 91.3782 56.3678 91.6436 56.3681H92.361C92.6264 56.3678 92.8808 56.2863 93.0684 56.1413C93.2561 55.9963 93.3617 55.7997 93.362 55.5947V53.2669C93.3617 53.0618 93.2561 52.8652 93.0684 52.7202C92.8808 52.5753 92.6264 52.4937 92.361 52.4935H91.6436Z" fill="#535461"/>
<path d="M133.537 52.4935C133.272 52.4937 133.017 52.5752 132.83 52.7202C132.642 52.8652 132.536 53.0618 132.536 53.2669V55.5947C132.536 55.7997 132.642 55.9963 132.83 56.1413C133.017 56.2863 133.272 56.3679 133.537 56.3681H134.255C134.52 56.3679 134.774 56.2863 134.962 56.1413C135.15 55.9963 135.255 55.7997 135.255 55.5947V53.2669C135.255 53.0618 135.15 52.8652 134.962 52.7202C134.774 52.5752 134.52 52.4937 134.255 52.4935H133.537Z" fill="#535461"/>
<path d="M145.517 59.1972C147.419 59.1972 148.961 58.0061 148.961 56.5368C148.961 55.0676 147.419 53.8765 145.517 53.8765C143.616 53.8765 142.074 55.0676 142.074 56.5368C142.074 58.0061 143.616 59.1972 145.517 59.1972Z" fill="#E6E6E6"/>
<path d="M138.2 64.8504C140.102 64.8504 141.643 63.6593 141.643 62.19C141.643 60.7208 140.102 59.5297 138.2 59.5297C136.298 59.5297 134.757 60.7208 134.757 62.19C134.757 63.6593 136.298 64.8504 138.2 64.8504Z" fill="#E6E6E6"/>
<path d="M153.121 64.5178C155.023 64.5178 156.564 63.3268 156.564 61.8575C156.564 60.3883 155.023 59.1972 153.121 59.1972C151.219 59.1972 149.678 60.3883 149.678 61.8575C149.678 63.3268 151.219 64.5178 153.121 64.5178Z" fill="#E6E6E6"/>
<path d="M146.091 70.3927C147.992 70.3927 149.534 69.2017 149.534 67.7324C149.534 66.2632 147.992 65.0721 146.091 65.0721C144.189 65.0721 142.647 66.2632 142.647 67.7324C142.647 69.2017 144.189 70.3927 146.091 70.3927Z" fill="#E6E6E6"/>
<path d="M98.1354 50.9416C97.366 50.9423 96.6284 51.1788 96.0843 51.5991C95.5403 52.0194 95.2343 52.5893 95.2334 53.1838V63.1045C95.2343 63.6989 95.5403 64.2688 96.0843 64.6892C96.6284 65.1095 97.366 65.3459 98.1354 65.3466H127.619C128.388 65.3459 129.126 65.1095 129.67 64.6892C130.214 64.2688 130.52 63.6989 130.521 63.1045V53.1838C130.52 52.5893 130.214 52.0194 129.67 51.5991C129.126 51.1788 128.388 50.9423 127.619 50.9416H98.1354Z" fill="#535461"/>
<path d="M147.856 57.7562H143.187L145.441 54.7706L147.856 57.7562ZM143.686 57.5345H147.338L145.449 55.1994L143.686 57.5345Z" fill="#535461"/>
<path d="M140.137 63.5201H136.263V60.8599H140.137V63.5201ZM136.55 63.2985H139.85V61.0816H136.55V63.2985Z" fill="#535461"/>
<path d="M153.121 63.5201C152.695 63.5201 152.279 63.4226 151.925 63.2399C151.571 63.0572 151.295 62.7976 151.133 62.4937C150.97 62.1899 150.927 61.8556 151.01 61.5331C151.093 61.2106 151.298 60.9143 151.599 60.6818C151.9 60.4493 152.284 60.2909 152.701 60.2268C153.118 60.1626 153.551 60.1955 153.944 60.3214C154.338 60.4472 154.674 60.6603 154.91 60.9337C155.147 61.2072 155.273 61.5286 155.273 61.8575C155.272 62.2983 155.045 62.7209 154.642 63.0326C154.239 63.3443 153.691 63.5196 153.121 63.5201ZM153.121 60.4165C152.752 60.4165 152.391 60.501 152.085 60.6593C151.778 60.8177 151.539 61.0427 151.398 61.306C151.257 61.5693 151.22 61.8591 151.292 62.1386C151.364 62.4181 151.541 62.6749 151.802 62.8764C152.063 63.0779 152.395 63.2152 152.757 63.2708C153.119 63.3264 153.494 63.2978 153.835 63.1888C154.176 63.0797 154.467 62.895 154.672 62.658C154.877 62.4211 154.986 62.1425 154.986 61.8575C154.986 61.4754 154.789 61.1092 154.439 60.839C154.089 60.5689 153.615 60.4169 153.121 60.4165Z" fill="#535461"/>
<path d="M144.542 66.407L144.34 66.5637L147.568 69.0578L147.77 68.901L144.542 66.407Z" fill="#535461"/>
<path d="M147.641 66.4051L144.342 68.844L144.54 69.0042L147.84 66.5653L147.641 66.4051Z" fill="#535461"/>
<path d="M30.4975 25.6122C22.6639 27.2808 14.0859 28.5368 11.0122 26.5882C12.6951 24.4237 13.6657 22.2902 13.748 20.1956C13.7666 19.2372 14.269 18.3223 15.1482 17.646C15.7302 17.2115 16.4327 16.8853 17.2024 16.6921C17.9721 16.4988 18.7886 16.4437 19.59 16.5308L21.623 16.7512C21.6914 16.7586 21.7595 16.7671 21.8272 16.7765C22.8031 16.9193 23.6965 17.2946 24.3821 17.8498C25.0677 18.405 25.5111 19.1121 25.65 19.8719C26.0783 22.1432 27.5186 24.1095 30.4975 25.6122Z" fill="#2F2E41"/>
<path d="M38.0536 47.1609L41.099 47.6461C41.3316 47.6832 41.5506 47.7598 41.7401 47.8704C41.9296 47.981 42.0849 48.1228 42.1946 48.2855C42.3043 48.4483 42.3658 48.6278 42.3744 48.8112C42.3831 48.9946 42.3389 49.1771 42.2449 49.3456C42.154 49.5085 42.0189 49.6543 41.8486 49.7732C41.6783 49.8921 41.477 49.9813 41.2581 50.0348C41.0393 50.0882 40.8081 50.1047 40.5804 50.083C40.3526 50.0613 40.1335 50.002 39.938 49.9091L35.2796 47.6955L27.3672 33.3246L31.4654 32.4087L38.0536 47.1609Z" fill="#A0616A"/>
<path d="M16.3593 66.0182L14.0534 66.5364L12.308 63.7513L14.0829 63.0367L16.3593 66.0182Z" fill="#A0616A"/>
<path d="M15.1876 77.9509L12.3584 77.3721L12.8013 73.6168L15.2361 73.7326L15.1876 77.9509Z" fill="#A0616A"/>
<path d="M15.4828 63.4149L12.4863 64.9385L0.961365 54.8666C0.711376 54.6482 0.526773 54.3898 0.420688 54.11C0.314604 53.8301 0.289647 53.5356 0.347588 53.2475C0.405528 52.9593 0.544946 52.6846 0.755922 52.4428C0.966898 52.201 1.24425 51.9981 1.56824 51.8486L15.9255 45.2205L18.1245 50.101L10.6486 55.5213L15.4828 63.4149Z" fill="#2F2E41"/>
<path d="M18.0062 68.6869C17.9987 68.6945 17.9912 68.702 17.9836 68.7095C17.7921 69.5759 17.4557 70.3661 16.7046 70.9383C16.4819 71.3263 16.082 71.6374 15.5813 71.8121C15.0806 71.9868 14.5141 72.0129 13.9901 71.8854C13.4959 71.7652 13.0711 71.5161 12.7883 71.1806C12.5056 70.8451 12.3825 70.4442 12.4401 70.0463L13.0001 66.1794C14.3433 65.9409 15.3677 65.3507 15.8862 64.2025L17.1916 64.8895C17.5779 65.0912 17.907 65.3515 18.1587 65.6547C18.4105 65.9579 18.5796 66.2975 18.6558 66.6529C18.7321 67.0082 18.7138 67.3719 18.6021 67.7216C18.4904 68.0713 18.2877 68.3998 18.0062 68.6869Z" fill="#2F2E41"/>
<path d="M19.4268 24.7841C21.974 24.7841 24.0389 23.1888 24.0389 21.2208C24.0389 19.2528 21.974 17.6574 19.4268 17.6574C16.8796 17.6574 14.8147 19.2528 14.8147 21.2208C14.8147 23.1888 16.8796 24.7841 19.4268 24.7841Z" fill="#A0616A"/>
<path d="M23.4209 26.9171L16.1499 31.5696L15.5836 29.6545L16.8527 28.1599C17.2049 26.6934 16.9775 25.0763 16.3723 23.3611L21.1161 23.3644C21.3209 24.7506 22.0194 25.9598 23.4209 26.9171Z" fill="#A0616A"/>
<path d="M25.4679 39.121L15.652 41.4311L14.8884 38.7338C13.0488 36.8255 12.2492 35.0838 13.4527 33.6628L12.847 31.5237C14.5843 30.4669 15.9505 29.3856 16.7007 28.2637L22.74 26.4405L27.1797 26.6515L28.4908 30.0459L25.4679 39.121Z" fill="#6C63FF"/>
<path d="M32.4413 32.7883C30.349 32.7712 28.3012 33.256 26.5804 34.1758L27.1797 26.6515C27.7879 26.7143 28.3645 26.8983 28.8527 27.1855C29.341 27.4726 29.724 27.8531 29.9642 28.2893L32.4413 32.7883Z" fill="#6C63FF"/>
<path d="M15.4518 74.6314L12.3363 74.039L12.7949 53.5861L16.9784 50.0465L16.042 45.5592L15.436 40.5323L25.6551 38.5746C29.1091 43.4201 31.1969 47.8257 28.1494 50.5776L15.4518 74.6314Z" fill="#2F2E41"/>
<path d="M14.7363 81.537C14.7223 81.5412 14.7084 81.5454 14.6943 81.5496C13.7897 82.3612 12.7957 83.0229 11.546 83.2556C10.9979 83.5526 10.3273 83.6833 9.66239 83.6226C8.99748 83.5619 8.38479 83.3141 7.94132 82.9265C7.52308 82.561 7.28221 82.0946 7.25988 81.6071C7.23756 81.1195 7.43518 80.6411 7.81894 80.2537L11.5489 76.4881C13.1454 76.8912 14.6951 76.7725 16.1704 75.8254L16.9746 77.1765C17.214 77.5746 17.3458 78.0063 17.362 78.4451C17.3783 78.8838 17.2786 79.3206 17.0692 79.7286C16.8597 80.1367 16.5448 80.5075 16.1437 80.8184C15.7426 81.1293 15.2638 81.3738 14.7363 81.537Z" fill="#2F2E41"/>
<path d="M3.35542 49.621L0.620802 51.43C0.393874 51.5801 0.219668 51.772 0.114334 51.988C0.00900049 52.204 -0.0240527 52.437 0.0182378 52.6655C0.0605284 52.894 0.176795 53.1106 0.356259 53.2951C0.535723 53.4796 0.772576 53.6261 1.04486 53.7211C1.45477 53.864 1.91963 53.8814 2.34547 53.7697C2.77132 53.658 3.12638 53.4255 3.33889 53.1193L5.3164 50.2696L14.3852 37.4835L10.9744 36.9881L3.35542 49.621Z" fill="#A0616A"/>
<path d="M14.9318 37.8427C13.1605 37.4295 11.5013 37.1863 10.2145 37.5073C10.4842 34.9284 11.0402 32.6246 12.8474 31.5237L15.4165 31.7569L14.9318 37.8427Z" fill="#6C63FF"/>
<path d="M24.5755 20.3945L14.7111 19.9256L14.8324 18.4013C18.2759 16.6074 21.5641 16.7637 24.6969 18.8702L24.5755 20.3945Z" fill="#2F2E41"/>
</svg>
