<svg width="11" height="13" viewBox="0 0 11 13" fill="none" xmlns="http://www.w3.org/2000/svg">
<path d="M0.166626 5.03928H1.79163V0.670715H3.41663L6.19538 5.03928H9.91663V0.670715H11.5416V5.03928H13.1666V6.49547H11.5416V7.95165H13.1666V9.40784H11.5416V13.7764H9.91663L7.12975 9.40784H3.41663V13.7764H1.79163V9.40784H0.166626V7.95165H1.79163V6.49547H0.166626V5.03928ZM3.41663 5.03928H4.33475L3.41663 3.60493V5.03928ZM3.41663 6.49547V7.95165H6.19538L5.26913 6.49547H3.41663ZM9.91663 10.864V9.40784H8.98225L9.91663 10.864ZM7.12163 6.49547L8.056 7.95165H9.91663V6.49547H7.12163Z" fill="#0AD975"/>
</svg>
