<svg width="21" height="21" viewBox="0 0 21 21" fill="none" xmlns="http://www.w3.org/2000/svg">
<path d="M20.4217 5.82548L18.5307 7.71637C18.338 7.90915 18.0262 7.90915 17.8334 7.71637L13.2805 3.16346C13.0877 2.97067 13.0877 2.65894 13.2805 2.46616L15.1714 0.575267C15.9384 -0.191756 17.1854 -0.191756 17.9565 0.575267L20.4217 3.0404C21.1928 3.80743 21.1928 5.05435 20.4217 5.82548ZM11.6562 4.09045L0.885007 14.8616L0.0154351 19.8452C-0.103516 20.5179 0.483035 21.1003 1.15572 20.9855L6.13935 20.1118L16.9106 9.34066C17.1033 9.14787 17.1033 8.83614 16.9106 8.64336L12.3576 4.09045C12.1607 3.89766 11.849 3.89766 11.6562 4.09045V4.09045ZM5.0893 13.9387C4.86371 13.7131 4.86371 13.3521 5.0893 13.1265L11.406 6.80989C11.6316 6.5843 11.9926 6.5843 12.2181 6.80989C12.4437 7.03549 12.4437 7.39644 12.2181 7.62203L5.90145 13.9387C5.67585 14.1643 5.3149 14.1643 5.0893 13.9387V13.9387ZM3.60857 17.3882H5.57741V18.8772L2.93178 19.3407L1.65614 18.065L2.11963 15.4194H3.60857V17.3882Z" fill="black" fill-opacity="0.5"/>
</svg>
