<svg width="25" height="25" viewBox="0 0 25 25" fill="none" xmlns="http://www.w3.org/2000/svg">
<circle cx="12.5" cy="12.5" r="10.5" fill="#6A21AE"/>
<path d="M17.6971 10.0514L16.7066 11.0419C16.6056 11.1429 16.4423 11.1429 16.3413 11.0419L13.9565 8.65705C13.8555 8.55607 13.8555 8.39278 13.9565 8.2918L14.9469 7.30133C15.3487 6.89956 16.0019 6.89956 16.4058 7.30133L17.6971 8.59259C18.101 8.99437 18.101 9.64752 17.6971 10.0514ZM13.1056 9.14261L7.46357 14.7846L7.00809 17.3951C6.94578 17.7474 7.25302 18.0525 7.60538 17.9924L10.2159 17.5347L15.8579 11.8927C15.9589 11.7917 15.9589 11.6285 15.8579 11.5275L13.473 9.14261C13.3699 9.04163 13.2066 9.04163 13.1056 9.14261ZM9.66583 14.3012C9.54766 14.183 9.54766 13.994 9.66583 13.8758L12.9746 10.5671C13.0927 10.4489 13.2818 10.4489 13.4 10.5671C13.5182 10.6853 13.5182 10.8743 13.4 10.9925L10.0912 14.3012C9.97307 14.4194 9.78399 14.4194 9.66583 14.3012ZM8.8902 16.1081H9.9215V16.888L8.53569 17.1308L7.8675 16.4626L8.11028 15.0768H8.8902V16.1081Z" fill="black" fill-opacity="0.5"/>
</svg>
