<svg width="22" height="28" viewBox="0 0 22 28" fill="none" xmlns="http://www.w3.org/2000/svg">
<path d="M17.1963 14.3391H12.5887V9.47852C12.5887 8.88208 12.1302 8.39838 11.5648 8.39838H10.5409C9.97551 8.39838 9.51699 8.88208 9.51699 9.47852V14.3391H4.90941C4.34402 14.3391 3.8855 14.8228 3.8855 15.4193V16.4994C3.8855 17.0959 4.34402 17.5796 4.90941 17.5796H9.51699V22.4402C9.51699 23.0366 9.97551 23.5203 10.5409 23.5203H11.5648C12.1302 23.5203 12.5887 23.0366 12.5887 22.4402V17.5796H17.1963C17.7617 17.5796 18.2202 17.0959 18.2202 16.4994V15.4193C18.2202 14.8228 17.7617 14.3391 17.1963 14.3391Z" fill="white"/>
</svg>
