<svg width="25" height="25" viewBox="0 0 25 25" fill="none" xmlns="http://www.w3.org/2000/svg">
<path d="M20.625 21.875H4.375C4.03125 21.875 3.75 22.2266 3.75 22.6562V24.2188C3.75 24.6484 4.03125 25 4.375 25H20.625C20.9688 25 21.25 24.6484 21.25 24.2188V22.6562C21.25 22.2266 20.9688 21.875 20.625 21.875ZM23.125 6.25C22.0898 6.25 21.25 7.2998 21.25 8.59375C21.25 8.94043 21.3125 9.2627 21.4219 9.56055L18.5938 11.6797C17.9922 12.1289 17.2148 11.875 16.8672 11.1133L13.6836 4.15039C14.1016 3.7207 14.375 3.07617 14.375 2.34375C14.375 1.0498 13.5352 0 12.5 0C11.4648 0 10.625 1.0498 10.625 2.34375C10.625 3.07617 10.8984 3.7207 11.3164 4.15039L8.13281 11.1133C7.78516 11.875 7.00391 12.1289 6.40625 11.6797L3.58203 9.56055C3.6875 9.26758 3.75391 8.94043 3.75391 8.59375C3.75391 7.2998 2.91406 6.25 1.87891 6.25C0.84375 6.25 0 7.2998 0 8.59375C0 9.8877 0.839844 10.9375 1.875 10.9375C1.97656 10.9375 2.07812 10.918 2.17578 10.8984L5 20.3125H20L22.8242 10.8984C22.9219 10.918 23.0234 10.9375 23.125 10.9375C24.1602 10.9375 25 9.8877 25 8.59375C25 7.2998 24.1602 6.25 23.125 6.25Z" fill="#1BD494" fill-opacity="0.8"/>
</svg>
