<svg width="162" height="83" viewBox="0 0 162 83" fill="none" xmlns="http://www.w3.org/2000/svg">
<g clip-path="url(#clip0)">
<path d="M139.079 34.6557C141.312 36.4097 143.803 36.6896 146.552 35.4953C145.399 34.1104 145.124 32.604 145.431 31.0172H140.075C140.312 32.4116 140.249 33.71 139.079 34.6557Z" fill="#FFB8B8"/>
<path d="M147.922 80.5572L150.787 79.4377L152.033 67.5891V61.3383L145.431 61.245L147.299 67.4958L147.922 80.5572Z" fill="#FFB8B8"/>
<path d="M139.618 80.5572L136.753 79.4377L135.507 67.5891V61.3383L142.109 61.245L140.241 67.4958L139.618 80.5572Z" fill="#FFB8B8"/>
<path d="M135.217 62.6444L142.192 62.178L143.313 57.4199L144.683 62.0847L152.282 61.7115C152.448 59.4446 152.026 57.1115 151.036 54.7143L134.345 54.4344L135.217 62.6444Z" fill="#2F2E41"/>
<path d="M127.967 44.7752L119.576 39.9358C119.489 39.8856 119.393 39.8444 119.291 39.8134L118.072 39.4417C117.092 39.1432 115.227 38.1504 116.137 37.1281C116.87 36.3039 119.678 37.7804 120.024 38.3274C120.133 38.4996 120.312 38.6414 120.535 38.7328L122.241 39.4326C122.282 39.4496 122.325 39.4648 122.369 39.4781L128.861 41.449C129.041 41.5036 129.235 41.5253 129.429 41.5122C129.622 41.4992 129.809 41.4517 129.973 41.3738L131.15 40.8149C131.317 40.7353 131.508 40.6876 131.705 40.6757C131.903 40.6638 132.102 40.6882 132.284 40.7467C132.466 40.8053 132.627 40.8962 132.751 41.0116C132.876 41.127 132.962 41.2635 133 41.4092L133.389 42.8796C133.445 43.0913 133.399 43.3111 133.26 43.4999C133.12 43.6888 132.896 43.8345 132.627 43.9114L129.146 44.9051C128.951 44.9608 128.74 44.978 128.534 44.9553C128.327 44.9326 128.132 44.8706 127.967 44.7752Z" fill="#FFB8B8"/>
<path d="M129.526 41.2493C131.849 40.7827 131.605 43.2135 133.377 44.4088L136.862 42.3482L134.844 35.0289C134.302 35.1447 133.804 35.3534 133.388 35.6383C132.973 35.9231 132.652 36.2765 132.45 36.6703L129.526 41.2493Z" fill="#6C63FF"/>
<path d="M133.847 54.9009H151.41C148.568 49.1638 148.844 43.2632 151.265 37.2502C151.305 37.1504 151.298 37.0431 151.244 36.9468C151.191 36.8505 151.094 36.7712 150.971 36.7227L145.929 34.749C143.951 35.7134 141.824 35.417 139.577 34.0959L134.096 35.2155C135.588 41.9271 135.63 48.5008 133.847 54.9009Z" fill="#6C63FF"/>
<path d="M138.239 82.7485L130.919 82.9809C130.601 82.991 130.288 82.9124 130.042 82.7604C129.796 82.6083 129.634 82.3934 129.587 82.1571C129.539 81.9185 129.612 81.6751 129.792 81.4747C129.971 81.2743 130.244 81.1314 130.557 81.074L131.798 80.846L136.678 78.7278C137.401 79.2884 138.396 79.7625 139.613 80.1662L139.627 81.6555C139.63 81.937 139.487 82.2082 139.228 82.4121C138.969 82.616 138.614 82.7365 138.239 82.7485Z" fill="#2F2E41"/>
<path d="M161.928 82.9999H0.05896V82.7003H162L161.928 82.9999Z" fill="#3F3D56"/>
<path d="M149.241 82.6652L156.56 82.8976C156.879 82.9077 157.191 82.8292 157.437 82.6771C157.683 82.525 157.846 82.3102 157.893 82.0739C157.941 81.8352 157.868 81.5919 157.688 81.3915C157.509 81.1911 157.236 81.0482 156.923 80.9907L155.681 80.7628L150.802 78.6445C150.079 79.2052 149.083 79.6792 147.867 80.0829L147.852 81.5723C147.85 81.8537 147.993 82.1249 148.252 82.3288C148.511 82.5327 148.866 82.6533 149.241 82.6652Z" fill="#2F2E41"/>
<path d="M142.193 32.6965C144.394 32.6965 146.179 31.3598 146.179 29.711C146.179 28.0622 144.394 26.7255 142.193 26.7255C139.991 26.7255 138.207 28.0622 138.207 29.711C138.207 31.3598 139.991 32.6965 142.193 32.6965Z" fill="#FFB8B8"/>
<path d="M148.421 53.9679L147.104 55.8857C146.988 56.055 146.921 56.2407 146.907 56.4307C146.894 56.6208 146.934 56.8108 147.025 56.9884C147.117 57.1659 147.258 57.3269 147.438 57.4608C147.619 57.5947 147.835 57.6985 148.073 57.7653C148.325 57.836 148.595 57.8636 148.862 57.846C149.13 57.8285 149.39 57.7662 149.621 57.6637C149.853 57.5612 150.051 57.4213 150.2 57.254C150.35 57.0867 150.448 56.8965 150.487 56.6972L151.037 53.8746L153.03 46.7841L152.905 43.2389H148.919C150.279 45.8757 149.604 49.7651 148.421 53.9679Z" fill="#FFB8B8"/>
<path d="M148.296 43.6121H153.652L152.875 39.2124C152.769 38.6158 152.466 38.0484 151.993 37.5621C151.519 37.0757 150.891 36.686 150.164 36.4283L148.296 43.6121Z" fill="#6C63FF"/>
<path d="M146.43 28.0665C146.51 27.6677 146.477 27.2608 146.332 26.8723C146.188 26.4839 145.936 26.1225 145.593 25.8119C144.912 25.2091 143.773 24.7158 141.881 24.9485C137.755 25.4563 136.565 28.0291 136.969 28.6761C137.374 29.3232 138.613 30.823 138.613 30.823C138.613 30.823 137.703 29.3383 138.69 29.0361C139.677 28.7339 143.497 27.5433 144.83 28.0797C145.208 28.2216 145.528 28.4359 145.759 28.7007C145.99 28.9656 146.123 29.2715 146.144 29.5874L146.43 28.0665Z" fill="#2F2E41"/>
<path d="M78.2074 15.6398L76.6048 16.2488C74.7588 13.5264 72.3133 11.0566 69.3711 8.9432C54.9218 -1.46108 31.8654 -1.12092 17.9744 9.70147C4.08339 20.5239 4.53754 37.793 18.9868 48.1973C21.7369 50.1815 24.8874 51.8285 28.3225 53.0776L27.5385 54.2888C22.0938 52.3087 17.3564 49.3866 13.7175 45.764C10.0787 42.1414 7.64295 37.9223 6.61155 33.4553C5.58014 28.9882 5.98268 24.4015 7.7859 20.074C9.58913 15.7465 12.7413 11.8025 16.9819 8.56783C21.2225 5.33318 26.4299 2.90072 32.1738 1.47145C37.9177 0.0421681 44.0332 -0.342905 50.0151 0.34804C55.997 1.03899 61.6735 2.78612 66.5756 5.44508C71.4778 8.10404 75.4648 11.5985 78.2074 15.6398Z" fill="#E6E6E6"/>
<path d="M23.9884 40.6827C21.6312 42.5192 20.3445 44.9819 20.4115 47.529C20.4785 50.076 21.8936 52.4988 24.3456 54.2644C26.7976 56.0299 30.0855 56.9937 33.4862 56.9435C36.8868 56.8933 40.1215 55.8334 42.4788 53.9969L44.6866 52.2767L26.1963 38.9626L23.9884 40.6827Z" fill="#E6E6E6"/>
<path d="M24.9574 37.9857C24.4327 38.3954 24.1465 38.9443 24.1614 39.5119C24.1763 40.0795 24.4912 40.6195 25.0371 41.0134L41.9964 53.2252C42.543 53.6188 43.276 53.8336 44.0341 53.8224C44.7922 53.8112 45.5133 53.575 46.0388 53.1655C46.5643 52.7561 46.8511 52.2071 46.8362 51.6393C46.8213 51.0715 46.5058 50.5314 45.9592 50.1378L28.9999 37.926C28.4528 37.533 27.72 37.3186 26.9622 37.3298C26.2043 37.341 25.4834 37.5769 24.9574 37.9857Z" fill="#535461"/>
<path d="M75.8228 28.0186L78.0307 26.2985C80.3879 24.462 81.6746 21.9993 81.6076 19.4523C81.5406 16.9052 80.1255 14.4824 77.6735 12.7169C76.4594 11.8426 75.0273 11.1561 73.459 10.6964C71.8906 10.2367 70.2167 10.0129 68.5329 10.0378C65.1323 10.0879 61.8975 11.1479 59.5403 12.9844L57.3324 14.7045L75.8228 28.0186Z" fill="#E6E6E6"/>
<path d="M55.9806 13.8158C55.4559 14.2255 55.1696 14.7744 55.1846 15.342C55.1995 15.9096 55.5144 16.4496 56.0603 16.8435L73.0196 29.0552C73.5663 29.4483 74.2991 29.6628 75.0568 29.6514C75.8146 29.64 76.5353 29.4037 77.0606 28.9945C77.5858 28.5853 77.8726 28.0366 77.858 27.469C77.8433 26.9015 77.5284 26.3615 76.9824 25.9678L60.0231 13.7561C59.476 13.3631 58.7432 13.1487 57.9854 13.1599C57.2275 13.1711 56.5066 13.4069 55.9806 13.8158Z" fill="#535461"/>
<path d="M63.1346 42.0367V41.0445C63.1346 41.0445 68.9151 38.6092 73.6117 41.0445V41.9465L63.1346 42.0367Z" fill="#535461"/>
<path d="M115.761 42.0367V41.0445C115.761 41.0445 121.542 38.6092 126.238 41.0445V41.9465L115.761 42.0367Z" fill="#535461"/>
<path d="M80.4761 41.9465H74.8161C74.8161 41.9465 73.3709 40.6837 68.5539 40.7739C63.7368 40.8641 62.7734 41.9465 62.7734 41.9465C62.7734 41.9465 58.0165 44.3368 56.9327 47.3134C56.9327 47.3134 51.092 60.4373 50.9715 70.72C50.8511 81.0027 56.1499 82.4459 58.9197 82.7165C61.6895 82.9871 66.627 82.6263 71.4441 73.5162L73.4914 68.1944C73.4914 68.1944 73.8526 65.0375 78.188 67.0218C82.5234 69.0062 86.377 65.9395 86.377 65.9395H102.635C102.635 65.9395 108.054 68.465 112.991 66.4806C112.991 66.4806 114.918 64.5865 116.725 70.9906C116.725 70.9906 122.264 84.1596 130.815 82.8067C139.365 81.4537 138.401 70.4494 138.401 70.4494C138.401 70.4494 137.257 53.6273 132.561 47.6742C132.561 47.6742 128.045 41.4955 125.034 41.2249C125.034 41.2249 118.531 40.323 116.002 41.1347L114.557 42.0367L80.4761 41.9465Z" fill="#E6E6E6"/>
<path d="M67.3495 58.6333C73.1359 58.6333 77.8267 55.12 77.8267 50.786C77.8267 46.452 73.1359 42.9387 67.3495 42.9387C61.5632 42.9387 56.8724 46.452 56.8724 50.786C56.8724 55.12 61.5632 58.6333 67.3495 58.6333Z" fill="#535461"/>
<path d="M122.023 58.6333C127.81 58.6333 132.501 55.12 132.501 50.786C132.501 46.452 127.81 42.9387 122.023 42.9387C116.237 42.9387 111.546 46.452 111.546 50.786C111.546 55.12 116.237 58.6333 122.023 58.6333Z" fill="#535461"/>
<path d="M69.1752 49.0362L67.7783 49.9616C67.66 50.0396 67.5078 50.0826 67.3502 50.0826C67.1925 50.0826 67.0403 50.0396 66.922 49.9616L65.5227 49.0362C65.4542 48.991 65.3993 48.9355 65.3616 48.8733C65.3238 48.8112 65.304 48.7437 65.3035 48.6754V46.1291C65.3038 46.0005 65.3722 45.8773 65.4937 45.7865C65.6152 45.6957 65.7798 45.6447 65.9514 45.6447H68.7513C68.9228 45.6444 69.0874 45.6952 69.2089 45.7859C69.3305 45.8766 69.3989 45.9997 69.3992 46.1281V48.6736C69.3984 48.7425 69.3781 48.8104 69.3395 48.873C69.3008 48.9355 69.2448 48.9911 69.1752 49.0362Z" fill="#E6E6E6"/>
<path d="M69.1752 52.535L67.7783 51.6104C67.66 51.5324 67.5078 51.4894 67.3502 51.4894C67.1926 51.4894 67.0403 51.5324 66.922 51.6104L65.5227 52.5359C65.4542 52.5811 65.3993 52.6365 65.3616 52.6987C65.3238 52.7609 65.304 52.8284 65.3035 52.8967V55.4403C65.3032 55.5688 65.371 55.6921 65.4921 55.7831C65.6131 55.8741 65.7775 55.9253 65.949 55.9256H68.7513C68.9228 55.9258 69.0875 55.875 69.209 55.7843C69.3305 55.6937 69.3989 55.5706 69.3992 55.4421V52.8976C69.3985 52.8287 69.3781 52.7607 69.3395 52.6982C69.3008 52.6357 69.2449 52.58 69.1752 52.535Z" fill="#E6E6E6"/>
<path d="M65.0145 52.1552L66.2501 51.1071C66.3542 51.0185 66.4117 50.9045 66.4117 50.7865C66.4117 50.6684 66.3542 50.5544 66.2501 50.4658L65.0145 49.4177C64.9542 49.3664 64.8801 49.3254 64.7971 49.2971C64.7141 49.2688 64.624 49.2539 64.5328 49.2535H61.1368C60.9652 49.2537 60.8007 49.305 60.6795 49.396C60.5582 49.4869 60.4901 49.6102 60.4901 49.7388V51.8359C60.4898 51.9644 60.5577 52.0877 60.6787 52.1787C60.7998 52.2697 60.9641 52.321 61.1356 52.3212H64.534C64.6252 52.3205 64.7152 52.3053 64.798 52.2767C64.8808 52.2481 64.9546 52.2067 65.0145 52.1552Z" fill="#E6E6E6"/>
<path d="M69.6859 52.1553L68.4528 51.1063C68.3484 51.0177 68.2908 50.9037 68.2908 50.7856C68.2908 50.6675 68.3484 50.5535 68.4528 50.4649L69.6883 49.4168C69.7486 49.3655 69.8227 49.3244 69.9057 49.2961C69.9888 49.2678 70.0788 49.253 70.17 49.2526H73.566C73.7375 49.2524 73.9021 49.3032 74.0237 49.3939C74.1452 49.4845 74.2136 49.6076 74.2139 49.7361V51.8351C74.2142 51.9636 74.1464 52.0868 74.0254 52.1779C73.9043 52.2689 73.7399 52.3201 73.5684 52.3204H70.1712C70.0793 52.3203 69.9885 52.3055 69.9048 52.277C69.8211 52.2486 69.7465 52.2071 69.6859 52.1553Z" fill="#E6E6E6"/>
<path d="M81.5602 65.0375C85.7503 65.0375 89.1471 62.4933 89.1471 59.3549C89.1471 56.2166 85.7503 53.6724 81.5602 53.6724C77.3701 53.6724 73.9734 56.2166 73.9734 59.3549C73.9734 62.4933 77.3701 65.0375 81.5602 65.0375Z" fill="#535461"/>
<path d="M107.813 65.0375C112.003 65.0375 115.4 62.4933 115.4 59.3549C115.4 56.2166 112.003 53.6724 107.813 53.6724C103.623 53.6724 100.226 56.2166 100.226 59.3549C100.226 62.4933 103.623 65.0375 107.813 65.0375Z" fill="#535461"/>
<path d="M81.5602 63.1433C84.3536 63.1433 86.6181 61.4472 86.6181 59.3549C86.6181 57.2627 84.3536 55.5666 81.5602 55.5666C78.7668 55.5666 76.5023 57.2627 76.5023 59.3549C76.5023 61.4472 78.7668 63.1433 81.5602 63.1433Z" fill="#E6E6E6"/>
<path d="M81.5601 61.9707C80.8694 61.9707 80.1941 61.8173 79.6198 61.5298C79.0455 61.2424 78.5979 60.8339 78.3336 60.3559C78.0692 59.878 78.0001 59.352 78.1348 58.8446C78.2696 58.3372 78.6022 57.8711 79.0906 57.5053C79.579 57.1395 80.2013 56.8903 80.8787 56.7894C81.5562 56.6885 82.2584 56.7403 82.8965 56.9382C83.5347 57.1362 84.0801 57.4715 84.4639 57.9017C84.8476 58.3318 85.0524 58.8376 85.0524 59.3549C85.0514 60.0484 84.6831 60.7133 84.0284 61.2037C83.3737 61.694 82.486 61.9699 81.5601 61.9707ZM81.5601 56.9195C80.917 56.9195 80.2883 57.0624 79.7536 57.33C79.2189 57.5976 78.8022 57.9779 78.5561 58.4229C78.31 58.8679 78.2456 59.3576 78.3711 59.83C78.4965 60.3024 78.8062 60.7364 79.2609 61.077C79.7156 61.4176 80.295 61.6495 80.9257 61.7435C81.5565 61.8375 82.2102 61.7892 82.8044 61.6049C83.3985 61.4206 83.9063 61.1084 84.2636 60.7079C84.6209 60.3074 84.8116 59.8366 84.8116 59.3549C84.8106 58.7092 84.4677 58.0902 83.8582 57.6337C83.2486 57.1771 82.4221 56.9203 81.5601 56.9195Z" fill="#535461"/>
<path d="M107.813 63.1433C110.607 63.1433 112.871 61.4472 112.871 59.3549C112.871 57.2627 110.607 55.5666 107.813 55.5666C105.02 55.5666 102.755 57.2627 102.755 59.3549C102.755 61.4472 105.02 63.1433 107.813 63.1433Z" fill="#E6E6E6"/>
<path d="M107.813 61.9707C107.122 61.9707 106.447 61.8173 105.873 61.5298C105.299 61.2424 104.851 60.8339 104.587 60.3559C104.322 59.878 104.253 59.352 104.388 58.8446C104.523 58.3372 104.855 57.8711 105.344 57.5053C105.832 57.1395 106.454 56.8903 107.132 56.7894C107.809 56.6885 108.512 56.7403 109.15 56.9382C109.788 57.1362 110.333 57.4715 110.717 57.9017C111.101 58.3318 111.306 58.8376 111.306 59.3549C111.305 60.0484 110.936 60.7133 110.282 61.2037C109.627 61.694 108.739 61.9699 107.813 61.9707ZM107.813 56.9195C107.17 56.9195 106.541 57.0624 106.007 57.33C105.472 57.5976 105.055 57.9779 104.809 58.4229C104.563 58.8679 104.499 59.3576 104.624 59.83C104.75 60.3024 105.059 60.7364 105.514 61.077C105.969 61.4176 106.548 61.6495 107.179 61.7435C107.81 61.8375 108.463 61.7892 109.058 61.6049C109.652 61.4206 110.16 61.1084 110.517 60.7079C110.874 60.3074 111.065 59.8366 111.065 59.3549C111.064 58.7092 110.721 58.0902 110.111 57.6337C109.502 57.1771 108.675 56.9203 107.813 56.9195Z" fill="#535461"/>
<path d="M94.9272 61.61C96.1244 61.61 97.0948 60.883 97.0948 59.9863C97.0948 59.0896 96.1244 58.3627 94.9272 58.3627C93.7301 58.3627 92.7596 59.0896 92.7596 59.9863C92.7596 60.883 93.7301 61.61 94.9272 61.61Z" fill="#535461"/>
<path d="M91.6142 54.9217C91.8756 54.9217 92.0875 54.763 92.0875 54.5672C92.0875 54.3714 91.8756 54.2126 91.6142 54.2126C91.3528 54.2126 91.1408 54.3714 91.1408 54.5672C91.1408 54.763 91.3528 54.9217 91.6142 54.9217Z" fill="#535461"/>
<path d="M93.3871 54.9217C93.6485 54.9217 93.8603 54.763 93.8603 54.5672C93.8603 54.3714 93.6485 54.2126 93.3871 54.2126C93.1258 54.2126 92.9139 54.3714 92.9139 54.5672C92.9139 54.763 93.1258 54.9217 93.3871 54.9217Z" fill="#535461"/>
<path d="M93.1511 56.6039C93.4125 56.6039 93.6244 56.4452 93.6244 56.2494C93.6244 56.0536 93.4125 55.8949 93.1511 55.8949C92.8897 55.8949 92.6778 56.0536 92.6778 56.2494C92.6778 56.4452 92.8897 56.6039 93.1511 56.6039Z" fill="#535461"/>
<path d="M94.8068 56.649C95.0728 56.649 95.2885 56.4874 95.2885 56.2882C95.2885 56.0889 95.0728 55.9274 94.8068 55.9274C94.5407 55.9274 94.325 56.0889 94.325 56.2882C94.325 56.4874 94.5407 56.649 94.8068 56.649Z" fill="#535461"/>
<path d="M96.4603 56.6039C96.7217 56.6039 96.9336 56.4452 96.9336 56.2494C96.9336 56.0536 96.7217 55.8949 96.4603 55.8949C96.1989 55.8949 95.987 56.0536 95.987 56.2494C95.987 56.4452 96.1989 56.6039 96.4603 56.6039Z" fill="#535461"/>
<path d="M92.4419 55.8074C92.7033 55.8074 92.9151 55.6487 92.9151 55.4529C92.9151 55.2572 92.7033 55.0984 92.4419 55.0984C92.1806 55.0984 91.9687 55.2572 91.9687 55.4529C91.9687 55.6487 92.1806 55.8074 92.4419 55.8074Z" fill="#535461"/>
<path d="M93.9639 55.8372C94.2299 55.8372 94.4456 55.6756 94.4456 55.4764C94.4456 55.2771 94.2299 55.1156 93.9639 55.1156C93.6979 55.1156 93.4823 55.2771 93.4823 55.4764C93.4823 55.6756 93.6979 55.8372 93.9639 55.8372Z" fill="#535461"/>
<path d="M95.5294 55.8372C95.7955 55.8372 96.0111 55.6756 96.0111 55.4764C96.0111 55.2771 95.7955 55.1156 95.5294 55.1156C95.2634 55.1156 95.0477 55.2771 95.0477 55.4764C95.0477 55.6756 95.2634 55.8372 95.5294 55.8372Z" fill="#535461"/>
<path d="M97.1698 55.8074C97.4312 55.8074 97.6431 55.6487 97.6431 55.4529C97.6431 55.2572 97.4312 55.0984 97.1698 55.0984C96.9084 55.0984 96.6965 55.2572 96.6965 55.4529C96.6965 55.6487 96.9084 55.8074 97.1698 55.8074Z" fill="#535461"/>
<path d="M94.8068 54.9352C95.0728 54.9352 95.2885 54.7736 95.2885 54.5744C95.2885 54.3751 95.0728 54.2136 94.8068 54.2136C94.5407 54.2136 94.325 54.3751 94.325 54.5744C94.325 54.7736 94.5407 54.9352 94.8068 54.9352Z" fill="#535461"/>
<path d="M96.4928 54.9352C96.7589 54.9352 96.9746 54.7736 96.9746 54.5744C96.9746 54.3751 96.7589 54.2136 96.4928 54.2136C96.2268 54.2136 96.0111 54.3751 96.0111 54.5744C96.0111 54.7736 96.2268 54.9352 96.4928 54.9352Z" fill="#535461"/>
<path d="M97.8789 54.9217C98.1403 54.9217 98.3522 54.763 98.3522 54.5672C98.3522 54.3714 98.1403 54.2126 97.8789 54.2126C97.6175 54.2126 97.4056 54.3714 97.4056 54.5672C97.4056 54.763 97.6175 54.9217 97.8789 54.9217Z" fill="#535461"/>
<path d="M76.9236 42.7153C76.7009 42.7155 76.4873 42.7818 76.3298 42.8998C76.1723 43.0178 76.0837 43.1777 76.0834 43.3446V45.2388C76.0837 45.4057 76.1723 45.5656 76.3298 45.6836C76.4873 45.8016 76.7009 45.868 76.9236 45.8681H77.5258C77.7486 45.868 77.9621 45.8016 78.1197 45.6836C78.2772 45.5656 78.3658 45.4057 78.366 45.2388V43.3446C78.3658 43.1777 78.2772 43.0178 78.1197 42.8998C77.9621 42.7818 77.7486 42.7155 77.5258 42.7153H76.9236Z" fill="#535461"/>
<path d="M112.088 42.7153C111.865 42.7155 111.652 42.7818 111.494 42.8998C111.337 43.0178 111.248 43.1777 111.248 43.3446V45.2388C111.248 45.4057 111.337 45.5656 111.494 45.6836C111.652 45.8016 111.865 45.868 112.088 45.8681H112.69C112.913 45.868 113.127 45.8016 113.284 45.6836C113.442 45.5656 113.53 45.4057 113.531 45.2388V43.3446C113.53 43.1777 113.442 43.0178 113.284 42.8998C113.127 42.7818 112.913 42.7155 112.69 42.7153H112.088Z" fill="#535461"/>
<path d="M122.144 48.1702C123.74 48.1702 125.034 47.201 125.034 46.0055C125.034 44.8099 123.74 43.8407 122.144 43.8407C120.548 43.8407 119.254 44.8099 119.254 46.0055C119.254 47.201 120.548 48.1702 122.144 48.1702Z" fill="#E6E6E6"/>
<path d="M116.002 52.7704C117.598 52.7704 118.892 51.8012 118.892 50.6056C118.892 49.41 117.598 48.4408 116.002 48.4408C114.406 48.4408 113.112 49.41 113.112 50.6056C113.112 51.8012 114.406 52.7704 116.002 52.7704Z" fill="#E6E6E6"/>
<path d="M128.526 52.4998C130.123 52.4998 131.417 51.5306 131.417 50.335C131.417 49.1395 130.123 48.1703 128.526 48.1703C126.93 48.1703 125.636 49.1395 125.636 50.335C125.636 51.5306 126.93 52.4998 128.526 52.4998Z" fill="#E6E6E6"/>
<path d="M122.626 57.2803C124.222 57.2803 125.516 56.3112 125.516 55.1156C125.516 53.92 124.222 52.9508 122.626 52.9508C121.029 52.9508 119.735 53.92 119.735 55.1156C119.735 56.3112 121.029 57.2803 122.626 57.2803Z" fill="#E6E6E6"/>
<path d="M82.3728 41.4525C81.727 41.4531 81.1079 41.6455 80.6512 41.9875C80.1945 42.3295 79.9377 42.7933 79.9369 43.277V51.3497C79.9377 51.8335 80.1945 52.2972 80.6512 52.6392C81.1079 52.9813 81.727 53.1737 82.3728 53.1742H107.12C107.766 53.1737 108.385 52.9813 108.842 52.6392C109.299 52.2972 109.556 51.8335 109.556 51.3497V43.277C109.556 42.7933 109.299 42.3295 108.842 41.9875C108.385 41.6455 107.766 41.4531 107.12 41.4525H82.3728Z" fill="#535461"/>
<path d="M124.107 46.9977H120.188L122.08 44.5682L124.107 46.9977ZM120.607 46.8173H123.672L122.087 44.9171L120.607 46.8173Z" fill="#535461"/>
<path d="M117.628 51.688H114.377V49.5232H117.628V51.688ZM114.617 51.5076H117.387V49.7036H114.617V51.5076Z" fill="#535461"/>
<path d="M128.526 51.688C128.169 51.688 127.82 51.6086 127.523 51.4599C127.226 51.3113 126.994 51.1 126.857 50.8528C126.721 50.6055 126.685 50.3335 126.755 50.071C126.824 49.8086 126.996 49.5675 127.249 49.3783C127.502 49.1891 127.824 49.0602 128.174 49.008C128.524 48.9558 128.888 48.9826 129.218 49.085C129.548 49.1874 129.83 49.3608 130.028 49.5833C130.227 49.8058 130.333 50.0674 130.333 50.335C130.332 50.6937 130.142 51.0376 129.803 51.2912C129.465 51.5449 129.005 51.6876 128.526 51.688ZM128.526 49.1624C128.217 49.1624 127.914 49.2312 127.657 49.36C127.399 49.4889 127.198 49.672 127.08 49.8863C126.962 50.1005 126.931 50.3363 126.991 50.5638C127.051 50.7912 127.2 51.0001 127.419 51.1641C127.638 51.3281 127.917 51.4398 128.221 51.485C128.525 51.5303 128.839 51.5071 129.126 51.4183C129.412 51.3296 129.656 51.1793 129.828 50.9864C130 50.7936 130.092 50.5669 130.092 50.335C130.092 50.0241 129.926 49.7261 129.633 49.5062C129.339 49.2864 128.942 49.1628 128.526 49.1624Z" fill="#535461"/>
<path d="M121.326 54.0371L121.156 54.1646L123.865 56.1941L124.035 56.0665L121.326 54.0371Z" fill="#535461"/>
<path d="M123.927 54.0355L121.157 56.0201L121.324 56.1505L124.093 54.1659L123.927 54.0355Z" fill="#535461"/>
<path d="M25.5989 20.8413C19.0235 22.199 11.8233 23.2211 9.24335 21.6355C10.6559 19.8742 11.4706 18.1381 11.5397 16.4336C11.5553 15.6538 11.977 14.9093 12.715 14.359C13.2035 14.0055 13.7932 13.74 14.4393 13.5828C15.0853 13.4255 15.7707 13.3807 16.4434 13.4515L18.1498 13.6309C18.2073 13.6369 18.2644 13.6438 18.3213 13.6515C19.1403 13.7677 19.8902 14.0731 20.4657 14.5248C21.0412 14.9766 21.4134 15.552 21.53 16.1702C21.8895 18.0185 23.0985 19.6185 25.5989 20.8413Z" fill="#2F2E41"/>
<path d="M31.9414 38.3761L34.4976 38.7708C34.6929 38.801 34.8767 38.8633 35.0358 38.9533C35.1948 39.0433 35.3251 39.1587 35.4172 39.2912C35.5093 39.4236 35.5609 39.5697 35.5682 39.7189C35.5755 39.8681 35.5383 40.0167 35.4594 40.1538C35.3832 40.2863 35.2697 40.405 35.1268 40.5017C34.9839 40.5985 34.8149 40.6711 34.6312 40.7146C34.4475 40.7581 34.2535 40.7714 34.0623 40.7538C33.8711 40.7361 33.6872 40.6879 33.5231 40.6123L29.613 38.811L22.9714 27.1171L26.4114 26.3718L31.9414 38.3761Z" fill="#A0616A"/>
<path d="M13.7316 53.7207L11.7961 54.1423L10.3311 51.876L11.8209 51.2945L13.7316 53.7207Z" fill="#A0616A"/>
<path d="M12.7481 63.4306L10.3734 62.9597L10.7451 59.9038L12.7888 59.9981L12.7481 63.4306Z" fill="#A0616A"/>
<path d="M12.9959 51.6023L10.4807 52.8421L0.806924 44.6464C0.597089 44.4686 0.442137 44.2584 0.353092 44.0307C0.264047 43.8029 0.243098 43.5633 0.291732 43.3288C0.340367 43.0944 0.457391 42.8708 0.63448 42.6741C0.811568 42.4773 1.04437 42.3122 1.31632 42.1905L13.3675 36.7971L15.2133 40.7685L8.93819 45.1791L12.9959 51.6023Z" fill="#2F2E41"/>
<path d="M15.114 55.8923C15.1077 55.8985 15.1014 55.9046 15.0951 55.9107C14.9343 56.6157 14.652 57.2587 14.0215 57.7243C13.8346 58.04 13.4989 58.2932 13.0786 58.4353C12.6583 58.5775 12.1829 58.5988 11.743 58.495C11.3282 58.3972 10.9716 58.1944 10.7343 57.9215C10.497 57.6485 10.3936 57.3222 10.442 56.9985L10.912 53.8519C12.0394 53.6578 12.8993 53.1776 13.3345 52.2432L14.4303 52.8022C14.7545 52.9663 15.0307 53.1782 15.242 53.4249C15.4534 53.6716 15.5953 53.948 15.6593 54.2371C15.7233 54.5263 15.708 54.8222 15.6142 55.1068C15.5205 55.3914 15.3503 55.6586 15.114 55.8923Z" fill="#2F2E41"/>
<path d="M16.3064 20.1675C18.4445 20.1675 20.1777 18.8693 20.1777 17.2679C20.1777 15.6665 18.4445 14.3683 16.3064 14.3683C14.1684 14.3683 12.4351 15.6665 12.4351 17.2679C12.4351 18.8693 14.1684 20.1675 16.3064 20.1675Z" fill="#A0616A"/>
<path d="M19.6591 21.9031L13.556 25.689L13.0806 24.1306L14.1459 22.9144C14.4415 21.7211 14.2507 20.4053 13.7427 19.0095L17.7245 19.0122C17.8964 20.1402 18.4827 21.1241 19.6591 21.9031Z" fill="#A0616A"/>
<path d="M21.3772 31.8338L13.138 33.7136L12.497 31.5187C10.9529 29.9659 10.2817 28.5486 11.2919 27.3923L10.7836 25.6516C12.2418 24.7917 13.3885 23.9118 14.0182 22.9989L19.0875 21.5153L22.8141 21.687L23.9146 24.4492L21.3772 31.8338Z" fill="#6C63FF"/>
<path d="M27.2305 26.6807C25.4743 26.6668 23.7554 27.0612 22.311 27.8097L22.814 21.687C23.3245 21.7381 23.8085 21.8878 24.2184 22.1215C24.6282 22.3552 24.9497 22.6648 25.1513 23.0198L27.2305 26.6807Z" fill="#6C63FF"/>
<path d="M12.9699 60.7294L10.3548 60.2474L10.7397 43.6044L14.2513 40.7241L13.4652 37.0727L12.9566 32.9822L21.5343 31.3891C24.4336 35.3321 26.186 38.917 23.628 41.1562L12.9699 60.7294Z" fill="#2F2E41"/>
<path d="M12.3694 66.3487C12.3577 66.3522 12.3459 66.3556 12.3342 66.359C11.5748 67.0194 10.7405 67.5579 9.69154 67.7472C9.23142 67.9889 8.66857 68.0952 8.11045 68.0458C7.55234 67.9964 7.03806 67.7948 6.66582 67.4794C6.31476 67.182 6.11257 66.8025 6.09384 66.4058C6.0751 66.009 6.24098 65.6197 6.5631 65.3045L9.69398 62.2404C11.034 62.5684 12.3348 62.4717 13.5732 61.701L14.2482 62.8005C14.4491 63.1245 14.5597 63.4757 14.5733 63.8327C14.587 64.1898 14.5033 64.5452 14.3275 64.8772C14.1517 65.2093 13.8874 65.511 13.5507 65.764C13.2141 66.017 12.8121 66.2159 12.3694 66.3487Z" fill="#2F2E41"/>
<path d="M2.81658 40.3779L0.521208 41.8499C0.330729 41.972 0.184504 42.1282 0.0960895 42.304C0.00767467 42.4797 -0.0200695 42.6694 0.0154283 42.8553C0.0509261 43.0412 0.148518 43.2174 0.299156 43.3676C0.449794 43.5177 0.648603 43.6369 0.877156 43.7142C1.22122 43.8305 1.61141 43.8447 1.96886 43.7538C2.32631 43.6629 2.62434 43.4737 2.80271 43.2245L4.46259 40.9057L12.0747 30.5013L9.2118 30.0982L2.81658 40.3779Z" fill="#A0616A"/>
<path d="M12.5334 30.7935C11.0466 30.4574 9.65392 30.2594 8.57379 30.5207C8.80021 28.4221 9.26686 26.5475 10.7838 25.6516L12.9403 25.8414L12.5334 30.7935Z" fill="#6C63FF"/>
<path d="M20.6282 16.5955L12.3481 16.214L12.45 14.9736C15.3404 13.5139 18.1004 13.6411 20.73 15.3552L20.6282 16.5955Z" fill="#2F2E41"/>
</g>
<defs>
<clipPath id="clip0">
<rect width="162" height="83" fill="white"/>
</clipPath>
</defs>
</svg>
