<svg width="79" height="79" viewBox="0 0 79 79" fill="none" xmlns="http://www.w3.org/2000/svg">
<path d="M39.5 44.4375C51.7666 44.4375 61.7188 34.4854 61.7188 22.2188C61.7188 9.95215 51.7666 0 39.5 0C27.2334 0 17.2812 9.95215 17.2812 22.2188C17.2812 34.4854 27.2334 44.4375 39.5 44.4375ZM59.25 49.375H50.7482C47.3228 50.9488 43.5117 51.8438 39.5 51.8438C35.4883 51.8438 31.6926 50.9488 28.2518 49.375H19.75C8.84121 49.375 0 58.2162 0 69.125V71.5938C0 75.6826 3.31738 79 7.40625 79H71.5938C75.6826 79 79 75.6826 79 71.5938V69.125C79 58.2162 70.1588 49.375 59.25 49.375Z" fill="#C4C4C4"/>
</svg>
