<svg width="25" height="25" viewBox="0 0 25 25" fill="none" xmlns="http://www.w3.org/2000/svg">
<g clip-path="url(#clip0)">
<path d="M7.5 16.25C9.91797 16.25 11.875 13.4542 11.875 10C11.875 6.54576 9.91797 3.75 7.5 3.75C5.08203 3.75 3.125 6.54576 3.125 10C3.125 13.4542 5.08203 16.25 7.5 16.25ZM10.5 18.0357H10.1758C9.36328 18.5938 8.46094 18.9286 7.5 18.9286C6.53906 18.9286 5.64062 18.5938 4.82422 18.0357H4.5C2.01562 18.0357 0 20.9152 0 24.4643V26.0714C0 27.5502 0.839844 28.75 1.875 28.75H13.125C14.1602 28.75 15 27.5502 15 26.0714V24.4643C15 20.9152 12.9844 18.0357 10.5 18.0357ZM18.75 16.25C20.8203 16.25 22.5 13.8504 22.5 10.8929C22.5 7.93527 20.8203 5.53571 18.75 5.53571C16.6797 5.53571 15 7.93527 15 10.8929C15 13.8504 16.6797 16.25 18.75 16.25ZM20.625 18.0357H20.4766C19.9336 18.3036 19.3594 18.4821 18.75 18.4821C18.1406 18.4821 17.5664 18.3036 17.0234 18.0357H16.875C16.0781 18.0357 15.3438 18.365 14.6992 18.8951C15.6523 20.3627 16.25 22.3103 16.25 24.4643V26.6071C16.25 26.7299 16.2305 26.8471 16.2266 26.9643H23.125C24.1602 26.9643 25 25.7645 25 24.2857C25 20.8315 23.043 18.0357 20.625 18.0357Z" fill="#1BD494" fill-opacity="0.8"/>
</g>
<defs>
<clipPath id="clip0">
<rect width="25" height="25" fill="white"/>
</clipPath>
</defs>
</svg>
