<svg width="13" height="14" viewBox="0 0 13 14" fill="none" xmlns="http://www.w3.org/2000/svg">
<path d="M6.5 0.0325012C2.91014 0.0325012 0 2.9663 0 6.58535C0 10.2044 2.91014 13.1382 6.5 13.1382C10.0899 13.1382 13 10.2044 13 6.58535C13 2.9663 10.0899 0.0325012 6.5 0.0325012ZM9.57004 9.19467C9.52832 9.244 8.52753 10.403 6.69088 10.403C4.47113 10.403 2.90401 8.73151 2.90401 6.55673C2.90401 4.40848 4.52911 2.76768 6.67196 2.76768C8.42688 2.76768 9.34443 3.75365 9.38262 3.79563C9.42967 3.84734 9.45839 3.91332 9.46426 3.98324C9.47013 4.05316 9.45283 4.12307 9.41507 4.18201L8.82849 5.09769C8.72237 5.26328 8.49369 5.29193 8.35059 5.15833C8.34448 5.15268 7.65527 4.52736 6.72873 4.52736C5.52005 4.52736 4.79142 5.4145 4.79142 6.53765C4.79142 7.58405 5.46013 8.64334 6.73819 8.64334C7.75243 8.64334 8.44916 7.89457 8.45608 7.88698C8.59059 7.73994 8.82456 7.754 8.94117 7.91481L9.58454 8.80187C9.62629 8.85945 9.64758 8.92954 9.64495 9.00081C9.64232 9.07208 9.61593 9.14038 9.57004 9.19467Z" fill="#E6D227"/>
</svg>
